<ttFont>
          <CharString index="0">
            793 0 150 800 -20 387 328 711 callsubr
            hstemhm
            125 150 1374 150 hintmask 11101100
            963 597 rmoveto
            81 805 callsubr
            18 6 8 27 -6 44 -44 112 -13 27 rrcurveto
            15 -15 796 callsubr
            -50 hhcurveto
            -18 -15 -11 801 callgsubr
            -5 798 callsubr
            -22 6 33 -5 23 800 callgsubr
            -376 rmoveto
            -34 -20 4 23 30 21 23 2 18 hvcurveto
            53 587 41 41 rlineto
            76 20 62 52 69 vvcurveto
            79 -73 90 -168 26 vhcurveto
            802 callgsubr
            7 798 callgsubr
            17 3 14 7 vhcurveto
            314 -13 18 794 callsubr
            4 -9 rlinecurve
            236 -557 20 -52 14 -37 rrcurveto
            6 -17 4 -19 -14 vvcurveto
            -9 -26 -19 -6 -13 -7 -385 -14 rcurveline
            -17 -8 2 -14 -3 -8 -46 -163 rcurveline
            -5 -18 -2 803 callgsubr
            rrcurveto
            -37 -18 -23 -26 -35 hhcurveto
            -624 1024 -105 callgsubr
            hintmask 11011100
            1273 250 rmoveto
            -47 callsubr
            -111 -139 hvcurveto
            -845 vlineto
            -139 -115 -111 -85 callsubr
            111 139 hvcurveto
            845 vlineto
            139 113 111 138 vhcurveto
            endchar
          </CharString>
          <CharString index="1">
            -106 callgsubr
            -1046 -71 callsubr
            -5 -24 rlineto
            return
          </CharString>
          <CharString index="2">
            rmoveto
            -10 2 -17 13 18 26 17 13 18 vhcurveto
            101 73 72 98 123 vvcurveto
            92 -53 107 -107 -59 -59 -50 -63 -92 69 -31 76 37 0 -25 -16 -68 -62 -61 -45 -41 vhcurveto
            -10 -10 -37 -17 -22 vvcurveto
            return
          </CharString>
          <CharString index="3">
            -105 callgsubr
            1273 250 rmoveto
            return
          </CharString>
          <CharString index="4">
            rmoveto
            -239 -17 -148 -95 781 callgsubr
            -103 13 -86 64 -79 vhcurveto
            -64 -65 -10 -59 -57 779 callsubr
            95 -97 176 74 78 0 20 70 vhcurveto
            98 28 51 117 2 32 -6 -6 778 callsubr
            -7 rrcurveto
            -56 -48 -43 -29 -58 hhcurveto
            -88 809 callgsubr
            53 -64 hvcurveto
            -56 46 -31 61 59 vvcurveto
            45 18 780 callgsubr
            vhcurveto
            25 27 28 778 callgsubr
            65 35 -5 -5 81 hvcurveto
            -2 24 24 -2 24 hhcurveto
            47 76 54 51 12 -38 2 -29 hvcurveto
            -51 -46 9 -48 -56 -50 -14 -54 hhcurveto
            -60 -48 99 84 39 10 35 25 21 hvcurveto
            40 48 54 11 58 hhcurveto
            72 93 -14 -35 60 818 callgsubr
            79 -33 20 -31 12 -41 9 rlinecurve
            776 callgsubr
            7 -54 hhcurveto
            return
          </CharString>
          <CharString index="5">
            -16 -94 hhcurveto
            -7 -2 -5 -3 -1 hvcurveto
            -5 -24 rlineto
            -3 0 -5 7 vhcurveto
            536 hlineto
            8 0 4 -25 callsubr
            5 24 rlineto
            -62 callgsubr
            return
          </CharString>
          <CharString index="6">
            1227 rmoveto
            -57 callgsubr
            75 95 -15 -80 -23 -1 7 -229 -1076 vhcurveto
            -127 -27 -64 -98 callgsubr
            86 10 1 10 3 12 vhcurveto
            return
          </CharString>
          <CharString index="7">
            -363 rmoveto
            -39 -84 -22 -39 -17 -28 rrcurveto
            -66 -39 -35 -8 -92 hhcurveto
            777 callsubr
            469 hlineto
            766 callgsubr
            -112 2 -34 -11 61 vvcurveto
            8 10 32 764 callgsubr
            38 84 82 181 54 149 47 105 rlinecurve
            99 193 324 411 130 vvcurveto
            82 -21 51 -77 -55 -33 -49 757 callsubr
            33 -17 -47 vvcurveto
            -92 -116 762 callsubr
            750 callgsubr
            -78 753 callgsubr
            -16 10 -3 20 19 vvcurveto
            228 -34 275 -111 748 callsubr
            14 -8 -18 5 -17 hhcurveto
            -28 -40 -29 -10 -9 hvcurveto
            -25 -29 -133 -121 -53 vvcurveto
            -10 10 -8 8 25 78 138 5 34 vhcurveto
            42 -6 21 -87 7 -28 rrcurveto
            54 -229 10 -76 747 callgsubr
            -49 -9 -44 -12 -42 vhcurveto
            -39 749 callsubr
            -107 -61 -129 rrcurveto
            return
          </CharString>
          <CharString index="8">
            -77 callgsubr
            25 37 76 69 31 -91 callgsubr
            return
          </CharString>
          <CharString index="9">
            -102 callsubr
            -77 -109 return
          </CharString>
          <CharString index="10">
            194 callsubr
            -307 -203 -354 -267 -23 vhcurveto
            201 193 rmoveto
            200 callgsubr
            return
          </CharString>
          <CharString index="11">
            33 -32 37 -34 44 -29 86 103 rcurveline
            -134 80 -67 151 806 callgsubr
            156 59 170 61 147 vhcurveto
            791 callsubr
            -13 -61 -32 -106 -6 -52 rrcurveto
            176 -99 -123 43 795 callsubr
            -228 -260 -178 -262 hvcurveto
            -70 callgsubr
            return
          </CharString>
          <CharString index="12">
            -97 callgsubr
            endchar
          </CharString>
          <CharString index="13">
            384 callgsubr
            84 169 162 257 callgsubr
            -14 -11 10 12 hvcurveto
            4 vlineto
            return
          </CharString>
          <CharString index="14">
            16 94 hhcurveto
            7 2 4 -25 callsubr
            5 24 rlineto
            return
          </CharString>
          <CharString index="15">
            -127 -27 -63 -98 callgsubr
            86 10 1 10 3 12 vhcurveto
            return
          </CharString>
          <CharString index="16">
            -5 rmoveto
            -12 5 721 callgsubr
            26 hlineto
            31 749 callgsubr
            14 hvcurveto
            35 42 75 96 16 19 264 329 295 359 248 309 rrcurveto
            50 40 112 163 96 hhcurveto
            31 9 6 17 15 -6 2 -23 hvcurveto
            -436 hlineto
            0 19 0 723 callsubr
            -11 -9 -6 2 -14 23 78 53 -9 -86 -53 -62 -68 -43 -53 vhcurveto
            -220 -268 -312 -388 -136 -168 rrcurveto
            -6 -5 -7 743 callsubr
            -7 -6 723 callgsubr
            5 1 22 4 vvcurveto
            747 callsubr
            9 275 10 729 callgsubr
            63 2 40 77 67 hhcurveto
            84 16 6 15 12 725 callgsubr
            hvcurveto
            -526 hlineto
            -18 -9 -10 -11 -14 12 -5 14 82 67 -38 -79 hvcurveto
            return
          </CharString>
          <CharString index="17">
            1250 119 rmoveto
            -46 31 38 -72 36 hhcurveto
            23 4 18 16 4 hvcurveto
            657 callgsubr
            vvcurveto
            8 34 6 37 7 34 55 259 155 724 3 21 6 33 11 49 12 35 rrcurveto
            47 16 60 59 77 hhcurveto
            40 hlineto
            21 2 8 11 14 -7 7 -16 hvcurveto
            829 callsubr
            -25 804 callsubr
            -4 4 -15 19 51 43 0 -18 24 hvcurveto
            39 -30 12 -34 -40 vvcurveto
            -52 -18 -61 -16 -76 vhcurveto
            -42 -200 -65 -290 -25 -127 -8 -43 -5 -27 -10 -43 rrcurveto
            -11 -4 -2 -24 -11 hhcurveto
            -7 -11 20 12 -8 hvcurveto
            -693 1018 rlineto
            56 -38 -7 10 -80 hhcurveto
            -251 hlineto
            -28 -11 -2 -19 -19 15 0 28 61 113 -26 -67 -14 -7 -22 -3 -16 hvcurveto
            -211 -994 -15 -69 -68 -75 -61 -24 rlinecurve
            -23 -9 -37 0 -31 vvcurveto
            return
          </CharString>
          <CharString index="18">
            546 callsubr
            1374 150 vstem
            -28 callsubr
            -47 callsubr
            -111 -139 hvcurveto
            -845 vlineto
            -139 -115 -111 -85 callsubr
            111 139 hvcurveto
            845 vlineto
            139 113 111 138 vhcurveto
            1021 -613 rmoveto
            -109 -918 vlineto
            184 756 callsubr
            -70 vlineto
            -428 318 428 320 rlineto
            -69 vlineto
            656 callsubr
            rlineto
            endchar
          </CharString>
          <CharString index="19">
            -28 -48 -97 -56 -87 hhcurveto
            -128 -49 98 107 53 12 54 20 46 hvcurveto
            166 60 346 43 824 callgsubr
            92 -80 52 -86 return
          </CharString>
          <CharString index="20">
            rmoveto
            -53 callsubr
            139 650 rlineto
            25 5 9 10 20 hhcurveto
            145 hlineto
            11 54 rlineto
            780 callsubr
            -20 -4 12 10 hvcurveto
            4 vlineto
            7 54 53 100 22 56 -7 5 -18 9 -10 2 -45 -45 -124 -175 -85 -32 rrcurveto
            -22 -8 -35 1 739 callgsubr
            12 -2 14 vhcurveto
            45 732 callgsubr
            -3 -12 -4 -1 -6 -1 -6 hvcurveto
            return
          </CharString>
          <CharString index="21">
            254 217 244 801 callsubr
            -58 hlineto
            -122 -238 -168 -175 -175 -247 111 788 callgsubr
            -54 hlineto
            -243 207 -225 269 vhcurveto
            return
          </CharString>
          <CharString index="22">
            -136 vhcurveto
            -872 hlineto
            -136 -115 return
          </CharString>
          <CharString index="23">
            hstem
            100 324 callgsubr
            100 279 -97 callsubr
            return
          </CharString>
          <CharString index="24">
            72 callsubr
            51 -35 34 -40 -84 -169 -162 -39 -21 vhcurveto
            19 -19 rlineto
            -68 callgsubr
            return
          </CharString>
          <CharString index="25">
            215 -27 498 callsubr
            501 callgsubr
            156 638 callgsubr
            280 -27 239 callgsubr
            128 98 rlineto
            -91 27 89 -56 86 hhcurveto
            181 callsubr
            hvcurveto
            117 91 rlineto
            hintmask 01111100
            405 callgsubr
            107 78 rlineto
            15 11 5 7 22 vvcurveto
            6 0 12 -10 vhcurveto
            -15 -18 -33 -49 hhcurveto
            -41 -39 23 34 hvcurveto
            527 vlineto
            128 -130 107 -122 -101 -73 -31 -74 -84 vhcurveto
            63 -49 -74 42 -80 hhcurveto
            -126 -218 -102 -165 -14 2 -20 14 hvcurveto
            111 callgsubr
            502 callsubr
            vhcurveto
            773 callgsubr
            -8 0 773 callsubr
            vhcurveto
            216 callgsubr
            hintmask 10111100
            132 callsubr
            vhcurveto
            558 883 rmoveto
            502 callsubr
            hvcurveto
            773 callgsubr
            -8 0 773 callsubr
            355 callsubr
            -59 -16 -48 -15 -39 -15 rrcurveto
            375 vlineto
            72 103 51 47 vhcurveto
            -150 -659 rmoveto
            9 vlineto
            2 56 23 15 36 25 232 108 rcurveline
            155 callgsubr
            6 2 -2 -9 hvcurveto
            -203 461 callgsubr
            -461 hmoveto
            57 callgsubr
            -1 -3 0 -4 -3 vvcurveto
            -60 -10 -121 -56 -52 hhcurveto
            -61 -60 52 72 hvcurveto
            return
          </CharString>
          <CharString index="26">
            64 489 rmoveto
            -161 35 -128 69 -89 vhcurveto
            -90 70 110 -50 161 hhcurveto
            85 132 18 50 73 hvcurveto
            64 93 20 17 23 hhcurveto
            22 9 -24 -34 35 hvcurveto
            return
          </CharString>
          <CharString index="27">
            rmoveto
            -66 callgsubr
            -13 -4 -3 -150 -59 callsubr
            return
          </CharString>
          <CharString index="28">
            -229 48 callsubr
            -63 -16 -94 hhcurveto
            -7 -2 -5 -3 -1 hvcurveto
            -5 -24 rlineto
            -3 0 -5 7 vhcurveto
            return
          </CharString>
          <CharString index="29">
            -47 callgsubr
            -521 -71 callsubr
            -5 -24 rlineto
            -30 callsubr
            75 95 return
          </CharString>
          <CharString index="30">
            1121 hmoveto
            -106 callsubr
            return
          </CharString>
          <CharString index="31">
            645 -31 rmoveto
            38 207 163 24 11 -6 7 -10 hvcurveto
            -22 -59 -73 -24 hhcurveto
            -13 -13 20 18 814 callgsubr
            0 hvcurveto
            305 1401 rlineto
            1 13 1 9 9 vvcurveto
            21 -7 12 -16 -13 -4 -3 -150 -59 callsubr
            -124 -589 rlineto
            687 callgsubr
            -7 -36 -9 42 -60 hhcurveto
            -280 -231 -436 -234 -71 14 -185 101 77 212 417 callsubr
            -29 8 -34 22 -18 vhcurveto
            181 callgsubr
            -381 270 rmoveto
            6 123 39 124 52 113 rrcurveto
            190 87 85 48 64 hhcurveto
            84 45 -73 -37 -7 -1 -9 -2 -11 hvcurveto
            -85 -385 -20 callgsubr
            rlinecurve
            -82 -4 98 57 hvcurveto
            return
          </CharString>
          <CharString index="32">
            262 11 rmoveto
            86 398 13 59 11 62 28 51 rlinecurve
            52 29 82 114 93 17 14 -8 18 hhcurveto
            42 1 24 23 66 vvcurveto
            33 -12 39 -29 -76 -55 -67 -56 -47 vhcurveto
            -52 -44 -31 -51 -11 hhcurveto
            -8 -6 729 callsubr
            12 135 rlineto
            22 -2 43 -31 5 vhcurveto
            -37 -46 -42 -20 -28 hvcurveto
            -50 -50 -118 -93 -31 vvcurveto
            -13 9 -8 13 4 2 2 3 3 vhcurveto
            84 82 rlineto
            10 10 15 10 12 hhcurveto
            9 6 -6 -11 -2 0 -2 -147 -684 hvcurveto
            -3 -15 -2 -15 -12 vvcurveto
            -18 6 730 callsubr
            53 26 14 33 vhcurveto
            return
          </CharString>
          <CharString index="33">
            65 -96 callgsubr
            return
          </CharString>
          <CharString index="34">
            365 14 rmoveto
            -13 11 -1 13 vhcurveto
            392 hlineto
            13 10 1 13 hvcurveto
            28 vlineto
            12 -32 1 -13 2 vhcurveto
            -68 9 -24 27 49 vvcurveto
            229 vlineto
            248 455 18 36 69 23 34 6 rlinecurve
            16 4 19 9 18 vvcurveto
            4 -3 19 -17 vhcurveto
            -302 hlineto
            -11 -1 -17 -6 -9 2 -15 10 -1 hvcurveto
            36 -6 37 -5 -49 vvcurveto
            -26 822 callsubr
            -21 vhcurveto
            -180 -307 rlineto
            -12 -7 -5 -8 -6 hhcurveto
            -6 -2 3 14 -8 hvcurveto
            -213 341 rlineto
            -5 8 -3 10 10 vvcurveto
            44 44 4 35 5 vhcurveto
            9 3 16 9 6 -1 17 -11 hvcurveto
            -414 hlineto
            -10 0 -19 -4 -9 0 -16 9 -1 hvcurveto
            9 -1 35 -7 8 -2 58 -15 38 -34 31 -47 290 -490 rcurveline
            2 -5 0 -2 -3 vvcurveto
            -148 vlineto
            -54 -24 -24 -68 -7 vhcurveto
            -16 -1 -30 -4 -11 vvcurveto
            return
          </CharString>
          <CharString index="35">
            rmoveto
            627 hlineto
            27 99 rlineto
            -627 hlineto
            return
          </CharString>
          <CharString index="36">
            hlineto
            -7 -2 -3 -5 -1 hvcurveto
            return
          </CharString>
          <CharString index="37">
            150 rmoveto
            -90 109 187 -59 134 hhcurveto
            256 247 123 273 201 -170 115 -133 726 callgsubr
            -104 90 -131 86 152 vvcurveto
            123 123 110 129 202 98 -129 -173 11 vhcurveto
            -18 1 9 -13 20 hhcurveto
            36 -2 76 43 6 hvcurveto
            23 176 718 callsubr
            29 rrcurveto
            return
          </CharString>
          <CharString index="38">
            -30 rmoveto
            120 95 62 128 30 27 -12 26 hhcurveto
            9 9 2 6 1 hvcurveto
            73 323 0 18 2 9 rrcurveto
            15 -17 2 -9 -35 -6 -19 -25 -9 vhcurveto
            -147 -55 -189 -173 -228 hhcurveto
            -336 -213 254 320 425 393 360 418 125 146 -75 -107 55 hvcurveto
            31 -61 -2 -70 4 -67 rrcurveto
            -15 2 6 -2 17 hhcurveto
            12 14 33 44 14 hvcurveto
            26 82 24 121 25 vvcurveto
            124 -439 30 -82 -447 -503 -330 -493 return
          </CharString>
          <CharString index="39">
            -127 -26 -64 -16 -94 hhcurveto
            -7 -2 -5 -3 -1 hvcurveto
            -5 -24 rlineto
            -3 0 -5 7 vhcurveto
            536 hlineto
            8 0 4 -25 callsubr
            5 24 rlineto
            return
          </CharString>
          <CharString index="40">
            422 -29 99 -77 -21 830 98 hstemhm
            hintmask 10100000
            170 85 rmoveto
            15 callsubr
            16 12 9 13 rlinecurve
            14 20 49 62 23 25 54 68 63 137 callgsubr
            -691 rlineto
            15 callsubr
            16 12 9 13 rlinecurve
            14 20 53 62 23 25 54 68 59 137 callgsubr
            130 callgsubr
            hintmask 01100000
            -51 35 -34 169 callsubr
            162 4 callgsubr
            hintmask 10100000
            567 callsubr
            -14 -11 10 12 hvcurveto
            4 vlineto
            147 825 callgsubr
            2 9 72 callsubr
            51 -35 289 callsubr
            -54 -76 -62 -67 rrcurveto
            -12 -11 -11 -14 -11 hhcurveto
            -5 -4 1 10 708 callsubr
            7 hvcurveto
            55 263 rlineto
            2 11 1 6 9 vvcurveto
            51 -37 289 callsubr
            -59 -75 -61 -68 rrcurveto
            253 callsubr
            6 31 1 18 13 vvcurveto
            21 0 50 -36 -31 callsubr
            return
          </CharString>
          <CharString index="41">
            -10 754 callgsubr
            -16 vvcurveto
            -16 10 -16 17 3 3 1 2 4 755 callsubr
            87 133 163 752 callsubr
            59 -52 68 -63 -59 -21 -83 -10 vhcurveto
            return
          </CharString>
          <CharString index="42">
            -34 callsubr
            446 hlineto
            8 2 return
          </CharString>
          <CharString index="43">
            -67 0 39 722 callgsubr
            -4 -16 -14 -3 hvcurveto
            0 0 -1 -71 -342 vhcurveto
            -6 4 760 callgsubr
            23 hlineto
            3 5 0 3 2 hvcurveto
            2 2 3 22 3 12 rrcurveto
            83 21 719 callgsubr
            109 hhcurveto
            294 hlineto
            15 16 -3 -17 -2 0 -3 -1 -3 hvcurveto
            return
          </CharString>
          <CharString index="44">
            -17 -84 rrcurveto
            -62 callsubr
            return
          </CharString>
          <CharString index="45">
            -127 -26 -64 -102 callsubr
            -77 return
          </CharString>
          <CharString index="46">
            19 callsubr
            -54 17 -63 24 -55 hvcurveto
            -127 -137 51 -50 113 121 rlineto
            -42 28 31 -27 29 hhcurveto
            25 callsubr
            67 -12 63 -19 54 hvcurveto
            133 143 -51 51 -114 -122 rlineto
            57 -32 -40 36 -35 215 callgsubr
            63 38 -67 -68 20 vhcurveto
            -430 -461 rlineto
            -3 21 -2 20 17 vvcurveto
            456 272 rmoveto
            -220 -109 -293 -195 -61 -40 46 744 callgsubr
            425 455 rlineto
            2 -18 1 -15 -11 vvcurveto
            endchar
          </CharString>
          <CharString index="47">
            rmoveto
            427 -445 158 -351 vhcurveto
            -578 hlineto
            -7 -3 776 callsubr
            -7 -33 rlineto
            -3 0 -5 7 vhcurveto
            63 hlineto
            85 69 0 -82 641 callgsubr
            -225 243 callsubr
            -7 -34 rlineto
            -2 503 callsubr
            615 hlineto
            732 265 406 419 hvcurveto
            -1210 -604 rmoveto
            232 1091 45 callsubr
          </CharString>
          <CharString index="48">
            -281 vhcurveto
            13 -31 rlineto
            46 97 -1 589 callgsubr
            return
          </CharString>
          <CharString index="49">
            rmoveto
            -154 -118 -150 751 callgsubr
            31 744 callsubr
            141 74 100 100 136 -112 -81 752 callgsubr
            149 -124 163 741 callgsubr
            endchar
          </CharString>
          <CharString index="50">
            -75 59 -55 816 callgsubr
            54 75 70 -58 61 817 callsubr
            -60 -70 vhcurveto
            return
          </CharString>
          <CharString index="51">
            613 -18 rmoveto
            309 217 257 252 hvcurveto
            269 -1 -226 212 -267 hhcurveto
            -312 -232 -214 -279 -377 323 -120 189 hvcurveto
            -340 522 rmoveto
            211 93 185 230 253 117 -200 -240 -221 -81 -181 -240 -253 -119 220 226 vhcurveto
            return
          </CharString>
          <CharString index="52">
            75 460 rmoveto
            -272 200 -215 276 171 142 78 124 84 vhcurveto
            -123 84 139 -79 168 hhcurveto
            279 202 209 274 268 -226 205 -264 -155 -142 -85 -123 -85 hvcurveto
            127 -89 -151 81 -166 hhcurveto
            -251 -216 -222 -247 hvcurveto
            166 63 rmoveto
            158 86 184 179 229 126 -291 -198 -165 -80 -184 -190 152 callsubr
            vhcurveto
            1138 -496 rmoveto
            152 callsubr
            hvcurveto
            158 86 184 179 229 126 -291 -198 -165 -80 -184 -190 vhcurveto
            return
          </CharString>
          <CharString index="53">
            rmoveto
            228 -10 61 -260 -188 251 callsubr
            562 vlineto
            0 10 734 callsubr
            vhcurveto
            45 61 67 19 71 hhcurveto
            return
          </CharString>
          <CharString index="54">
            -3 -13 -1 742 callgsubr
            -59 41 -22 48 104 178 203 38 12 vhcurveto
            -14 15 -111 738 callsubr
            -26 -26 -31 -21 -26 539 callgsubr
            16 3 0 8 12 56 hvcurveto
            return
          </CharString>
          <CharString index="55">
            104 480 rmoveto
            -307 244 -191 275 110 153 46 48 101 vhcurveto
            13 806 callsubr
            7 vvcurveto
            187 vlineto
            71 62 1 47 20 vhcurveto
            6 3 1 15 5 vvcurveto
            5 0 18 -7 vhcurveto
            -440 hlineto
            -5 -2 -18 -5 -7 2 -16 5 135 31 -45 -76 hvcurveto
            -142 vlineto
            -45 -34 -86 -2 -58 hhcurveto
            -254 -114 200 229 222 117 185 241 144 94 -40 -139 45 hvcurveto
            3 -7 1 -34 15 -3 rrcurveto
            24 hlineto
            8 6 3 10 hvcurveto
            223 vlineto
            8 -6 0 -1 vhcurveto
            -38 hlineto
            -14 3 -8 -15 hhcurveto
            -9 hlineto
            -8 -143 61 -140 hhcurveto
            -266 -251 -219 -271 hvcurveto
            return
          </CharString>
          <CharString index="56">
            528 115 rmoveto
            405 callgsubr
            87 63 -10 -23 -11 -27 -13 -31 rlinecurve
            -4 -33 -81 -135 -305 vhcurveto
            -6 -14 -28 -26 -12 -12 rrcurveto
            -39 -37 -94 7 -74 vvcurveto
            -47 30 -34 47 35 50 10 32 15 vhcurveto
            70 149 464 1149 1 2 1 3 1 3 rlinecurve
            -21 callsubr
            -28 -14 -9 -93 -94 hhcurveto
            -41 -39 23 34 hvcurveto
            527 vlineto
            80 -45 56 -58 47 vhcurveto
            35 -44 -50 17 -55 75 callsubr
            87 79 36 47 502 callsubr
            vhcurveto
            773 callgsubr
            -8 0 773 callsubr
            vhcurveto
            216 callgsubr
            return
          </CharString>
          <CharString index="57">
            -48 callgsubr
            endchar
          </CharString>
          <CharString index="58">
            -165 -96 144 -208 hhcurveto
            -58 -206 -115 -65 -11 18 730 callgsubr
            23 64 107 49 140 94 -114 206 29 15 4 18 hhcurveto
            11 17 0 -15 -20 -117 -68 -26 -14 hvcurveto
            -155 -80 -186 713 callgsubr
            -102 rrcurveto
            -68 -52 -155 -119 -87 vvcurveto
            -29 11 -17 29 vhcurveto
            return
          </CharString>
          <CharString index="59">
            -44 callsubr
            hstem
            return
          </CharString>
          <CharString index="60">
            138 113 return
          </CharString>
          <CharString index="61">
            12 -8 -21 710 71 43 101 4 -20 hstemhm
            hintmask 11010000
            102 -29 -23 callgsubr
            171 callsubr
            20 80 47 17 13 hvcurveto
            140 106 140 44 146 104 89 64 85 65 68 86 rrcurveto
            15 19 38 58 22 vvcurveto
            21 -25 17 -21 -55 19 -58 -30 -19 vhcurveto
            -33 -20 -28 -27 -40 hhcurveto
            hintmask 11100000
            -49 callsubr
            return
          </CharString>
          <CharString index="62">
            vlineto
            1 13 15 809 callsubr
            rrcurveto
            84 172 42 6 27 hhcurveto
            160 return
          </CharString>
          <CharString index="63">
            21 -21 -39 callgsubr
            -20 return
          </CharString>
          <CharString index="64">
            958 788 rmoveto
            30 callsubr
            54 264 0 1 0 vvcurveto
            2 12 4 24 21 vvcurveto
            34 -8 33 -28 1 callsubr
            return
          </CharString>
          <CharString index="65">
            2 9 72 callsubr
            51 -35 34 -40 -84 -169 -162 -39 -21 vhcurveto
            19 -19 rlineto
            return
          </CharString>
          <CharString index="66">
            -99 callsubr
            13 2 17 10 hvcurveto
            return
          </CharString>
          <CharString index="67">
            411 155 callsubr
            1 473 callsubr
            20 12 rmoveto
            -9 6 -3 7 vhcurveto
            507 hlineto
            11 5 6 7 hvcurveto
            18 vlineto
            9 -6 0 -12 vhcurveto
            -38 hlineto
            -46 -58 46 49 hvcurveto
            4 62 41 28 38 40 114 120 116 128 104 112 rrcurveto
            13 12 12 8 6 hhcurveto
            15 22 -36 -21 11 hvcurveto
            73 -141 72 -131 71 -135 rrcurveto
            7 -13 3 -16 -15 vvcurveto
            -52 -65 -46 -47 vhcurveto
            -39 hlineto
            711 callgsubr
            -2 hvcurveto
            -1 -5 0 -7 -8 vvcurveto
            -6 5 -4 8 vhcurveto
            546 hlineto
            7 6 4 6 hvcurveto
            18 vlineto
            6 -3 4 -6 2 vhcurveto
            -48 18 -59 7 -38 39 -46 49 -33 56 -31 58 -71 132 -64 125 -64 125 -8 14 -28 45 -19 40 rrcurveto
            -9 20 -10 22 9 vvcurveto
            12 13 21 20 22 vhcurveto
            137 146 245 252 58 59 rrcurveto
            39 63 37 20 67 hhcurveto
            26 14 2 12 hvcurveto
            14 vlineto
            8 -6 4 -8 739 callsubr
            hlineto
            -7 -10 -4 -7 hvcurveto
            -7 0 9 -18 vvcurveto
            824 callsubr
            14 vhcurveto
            65 hlineto
            41 35 -22 -48 -44 -35 -41 -33 -35 hvcurveto
            -48 -52 -123 -126 -103 -108 rrcurveto
            -7 -6 -3 -6 -8 hhcurveto
            -3 1 -10 19 -6 10 -21 33 -33 67 -8 15 -39 78 -46 82 -39 78 rrcurveto
            -7 735 callgsubr
            11 vvcurveto
            40 35 29 34 vhcurveto
            92 hlineto
            17 4 0 14 hvcurveto
            15 vlineto
            9 -4 2 -18 vhcurveto
            hintmask 10100000
            -195 -216 1 -185 hhcurveto
            -14 -1 -10 -4 hvcurveto
            -12 vlineto
            hintmask 11000000
            -14 4 -1 12 vhcurveto
            19 hlineto
            150 36 -34 -62 33 hvcurveto
            278 -527 rlineto
            3 -5 1 -4 -3 vvcurveto
            -6 -3 -4 -7 -7 vhcurveto
            -509 -546 rlineto
            -49 -45 -94 -83 -83 hhcurveto
            -35 hlineto
            -13 -1 -6 -7 hvcurveto
            endchar
          </CharString>
          <CharString index="68">
            -71 14 -185 101 77 212 211 42 56 return
          </CharString>
          <CharString index="69">
            64 23 15 38 26 vhcurveto
            232 108 rlineto
            155 callgsubr
            6 2 -2 -9 hvcurveto
            return
          </CharString>
          <CharString index="70">
            rmoveto
            -180 -189 -318 -219 -157 53 -149 130 221 168 324 231 158 -54 130 -149 hvcurveto
            9 -35 rmoveto
            103 6 -76 -93 -198 -89 -406 -194 -95 -29 76 93 198 92 406 206 hvcurveto
            return
          </CharString>
          <CharString index="71">
            112 138 return
          </CharString>
          <CharString index="72">
            rmoveto
            -101 84 -83 101 101 83 742 callsubr
            -83 84 -101 -101 -84 -84 -100 vhcurveto
            75 2 rmoveto
            61 51 52 64 61 52 -52 -61 -64 -52 -51 -61 -64 -51 51 64 vhcurveto
            return
          </CharString>
          <CharString index="73">
            -118 195 callsubr
            -6 414 callsubr
            return
          </CharString>
          <CharString index="74">
            -106 86 -88 108 109 86 88 106 109 -86 88 -109 -108 -86 -88 -109 vhcurveto
            78 hmoveto
            66 51 53 802 callsubr
            -53 -66 -63 819 callgsubr
            -65 -51 53 63 vhcurveto
            return
          </CharString>
          <CharString index="75">
            1551 -51 callgsubr
            return
          </CharString>
          <CharString index="76">
            -14 -7 -3 -11 -21 vhcurveto
            -101 -52 -154 -155 -17 -32 24 -25 rcurveline
            77 75 47 52 20 hhcurveto
            16 7 -12 -16 hvcurveto
            -4 vlineto
            return
          </CharString>
          <CharString index="77">
            -7 2 -1 4 return
          </CharString>
          <CharString index="78">
            rmoveto
            -2 2 -2 2 2 vvcurveto
            2 2 2 2 2 vhcurveto
            213 310 callgsubr
            25 26 15 24 hhcurveto
            41 31 -35 -39 -41 -28 -31 -27 -22 hvcurveto
            -269 311 callgsubr
            815 callgsubr
            -3 hhcurveto
            -5 0 1 2 -2 hvcurveto
            endchar
          </CharString>
          <CharString index="79">
            125 1245 -104 callsubr
            return
          </CharString>
          <CharString index="80">
            45 1290 rmoveto
            -15 -8 -4 -9 -8 vvcurveto
            -19 6 -3 10 -3 vhcurveto
            69 -22 98 3 -81 vvcurveto
            -1570 vlineto
            -147 -139 13 -43 -20 vhcurveto
            -6 -2 -6 712 callgsubr
            2 -7 10 -3 vhcurveto
            627 hlineto
            10 3 2 568 callgsubr
            -6 2 vhcurveto
            -43 20 -207 -13 147 vvcurveto
            534 vlineto
            22 2 -5 24 29 hhcurveto
            -19 84 68 -10 74 hhcurveto
            336 233 353 315 227 -149 394 -259 -87 -21 -37 -34 -44 28 -28 23 -12 hvcurveto
            89 -46 183 -130 -419 vvcurveto
            -203 -122 -243 -220 -59 -211 46 71 -11 vhcurveto
            -4 18 -1 28 5 vvcurveto
            1035 vlineto
            return
          </CharString>
          <CharString index="81">
            -283 rmoveto
            -134 -75 65 158 -258 hvcurveto
            -12 7 -64 44 12 vvcurveto
            17 45 12 19 5 vhcurveto
            340 92 282 336 356 vvcurveto
            368 -327 263 -353 -445 -407 -308 -462 -252 153 -294 257 -77 vhcurveto
            102 -30 99 -65 86 -64 76 -58 82 -47 83 -50 rrcurveto
            -60 100 113 -61 121 hhcurveto
            89 95 34 29 34 hvcurveto
            10 8 4 5 8 vvcurveto
            15 -8 11 -15 vhcurveto
            -29 -35 -17 -28 hhcurveto
            -1196 881 rmoveto
            384 228 439 425 317 178 -229 -305 -382 -230 -454 -433 -295 -190 255 292 vhcurveto
            return
          </CharString>
          <CharString index="82">
            4 1 hvcurveto
            return
          </CharString>
          <CharString index="83">
            rmoveto
            -57 callsubr
            return
          </CharString>
          <CharString index="84">
            -78 -14 -127 -92 -21 vhcurveto
            -72 -37 11 20 -26 hvcurveto
            88 -115 -10 0 -6 hhcurveto
            -54 -36 -47 -41 hvcurveto
            -63 6 88 -65 65 hhcurveto
            156 96 25 115 86 hvcurveto
            86 99 35 149 125 vvcurveto
            return
          </CharString>
          <CharString index="85">
            -67 callgsubr
            473 vlineto
            112 158 101 96 188 0 -123 -156 vhcurveto
            -407 vlineto
            -67 callgsubr
            417 vlineto
            294 -133 63 -166 -122 -73 -75 -88 -78 vhcurveto
            -8 -8 -2 -5 -9 hhcurveto
            -7 0 19 5 hvcurveto
            return
          </CharString>
          <CharString index="86">
            23 50 30 86 58 11 rrcurveto
            60 11 8 -3 19 vvcurveto
            7 0 9 -11 2 vhcurveto
            -379 hlineto
            -10 -12 -7 -10 -38 57 12 23 -6 hvcurveto
            42 -16 34 -29 -47 vvcurveto
            -28 -5 -28 -186 -474 vhcurveto
            return
          </CharString>
          <CharString index="87">
            376 15 rmoveto
            -11 10 -4 10 vhcurveto
            625 hlineto
            8 8 3 10 hvcurveto
            14 vlineto
            818 callsubr
            -10 812 callgsubr
            -107 -62 47 74 12 2 812 callsubr
            hvcurveto
            24 124 27 117 24 122 167 200 188 220 174 209 38 46 67 80 45 30 rrcurveto
            40 27 33 -18 28 vvcurveto
            13 vlineto
            4 -6 8 -9 vhcurveto
            -370 hlineto
            -16 810 callsubr
            820 callgsubr
            return
          </CharString>
          <CharString index="88">
            154 callgsubr
            hintmask 1010000010000000
            550 -27 -73 callgsubr
            hintmask 1100000100000000
            -93 callgsubr
            hintmask 0001111000000000
            return
          </CharString>
          <CharString index="89">
            2 9 -83 callsubr
            return
          </CharString>
          <CharString index="90">
            -82 238 -21 814 -20 hstem
            120 940 rmoveto
            316 -315 -318 -317 88 -89 318 318 320 -320 88 88 -320 320 318 318 -89 88 -317 -318 -315 316 rlineto
            return
          </CharString>
          <CharString index="91">
            139 callsubr
            53 14 352 callgsubr
            hintmask 10110110
            -14 callsubr
            -205 331 rcurveline
            87 callsubr
            hintmask 01101110
            572 callsubr
            24 callsubr
            hintmask 01110110
            59 callsubr
            endchar
          </CharString>
          <CharString index="92">
            hlineto
            -31 0 26 8 19 21 94 3 21 hvcurveto
            24 119 28 136 40 115 rrcurveto
            119 callgsubr
            return
          </CharString>
          <CharString index="93">
            327 callgsubr
            16 vlineto
            2 0 4 -5 -16 -35 8 1 -11 vhcurveto
            -68 9 -24 22 48 vvcurveto
            288 vlineto
            6 1 2 3 1 vhcurveto
            1 2 8 0 1 hhcurveto
            173 -8 rlineto
            1 1 -1 -1 1 hvcurveto
            157 -249 30 -39 22 -36 28 -25 rlinecurve
            -53 60 64 -18 76 hhcurveto
            14 39 0 14 4 0 6 -7 2 hvcurveto
            -61 16 -45 52 -35 55 return
          </CharString>
          <CharString index="94">
            70 -1 -141 68 hhcurveto
            43 23 39 39 75 -54 54 -54 -142 -205 -120 -151 hvcurveto
            -189 256 -86 -186 vvcurveto
            -69 -45 -55 -74 vhcurveto
            return
          </CharString>
          <CharString index="95">
            55 hmoveto
            729 hlineto
            7 5 5 7 3 hvcurveto
            102 211 0 1 1 vvcurveto
            7 -6 5 -10 -5 -15 -3 -2 -3 vhcurveto
            -23 -30 -61 -134 -95 hhcurveto
            -264 hlineto
            -18 -17 15 16 -2 hvcurveto
            711 vlineto
            40 4 13 20 8 vhcurveto
            8 27 45 11 50 hhcurveto
            29 hlineto
            4 1 3 2 609 callsubr
            -487 495 callgsubr
            0 0 -5 5 vhcurveto
            15 hlineto
            35 98 -16 -64 hvcurveto
            -667 vlineto
            -78 -86 -24 -55 vhcurveto
            -15 hlineto
            -6 0 -4 -2 hvcurveto
            -37 502 callgsubr
            return
          </CharString>
          <CharString index="96">
            vstem
            17 -107 callgsubr
            return
          </CharString>
          <CharString index="97">
            10 3 286 87 213 vvcurveto
            238 -239 82 -226 vhcurveto
            -575 hlineto
            384 callsubr
            -6 7 vhcurveto
            68 hlineto
            83 65 -1 -80 641 callgsubr
            -224 243 callsubr
            508 691 rmoveto
            30 6 12 6 13 hhcurveto
            178 hlineto
            return
          </CharString>
          <CharString index="98">
            rmoveto
            47 32 736 callgsubr
            -32 36 -47 -43 -34 731 callgsubr
            34 -34 43 hvcurveto
            -266 hmoveto
            44 33 736 callgsubr
            -33 36 -44 -44 -35 731 callgsubr
            35 -34 44 hvcurveto
            endchar
          </CharString>
          <CharString index="99">
            558 -28 rmoveto
            263 210 206 273 return
          </CharString>
          <CharString index="100">
            175 0 46 -26 -21 770 57 532 52 hstemhm
            1072 193 -142 182 hintmask 10110100
            27 42 rmoveto
            -7 -34 rlineto
            -2 503 callsubr
            hintmask 01111000
            150 callsubr
            hintmask 10110100
            -10 callsubr
            hintmask 10111000
            55 callgsubr
            hintmask 10110100
            84 callsubr
            endchar
          </CharString>
          <CharString index="101">
            -93 callgsubr
            endchar
          </CharString>
          <CharString index="102">
            315 187 316 342 379 221 -338 -359 -329 -168 -310 -360 -377 -224 369 336 vhcurveto
            return
          </CharString>
          <CharString index="103">
            27 6 115 761 callgsubr
            rrcurveto
            -1 3 -4 28 8 vvcurveto
            return
          </CharString>
          <CharString index="104">
            1067 rmoveto
            -2 2 0 -1 5 hhcurveto
            3 1 1 2 3 hvcurveto
            269 217 rlineto
            27 22 28 31 41 vvcurveto
            39 -31 35 -41 -24 -26 -15 -34 -25 vhcurveto
            -213 -295 rlineto
            -2 -2 -2 -2 -2 vvcurveto
            -2 2 -2 2 -2 vhcurveto
            return
          </CharString>
          <CharString index="105">
            44 callgsubr
            -501 hlineto
            -7 -1 -3 -5 188 callsubr
            94 58 -30 -90 vhcurveto
            return
          </CharString>
          <CharString index="106">
            26 callsubr
            445 callsubr
            -22 156 -100 278 127 43 callgsubr
            hintmask 1010000001000000
            392 -1470 rmoveto
            7 11 1 7 4 vvcurveto
            4 0 9 -10 vhcurveto
            -15 -90 -79 -66 hhcurveto
            -25 -28 10 32 hvcurveto
            386 -156 -483 vlineto
            -31 22 -10 13 106 173 21 119 68 vhcurveto
            return
          </CharString>
          <CharString index="107">
            -90 0 64 448 62 336 62 -8 -21 22 -21 hstemhm
            228 165 330 170 -121 172 hintmask 11100101
            26 42 rmoveto
            679 callgsubr
            546 hlineto
            58 308 1 291 124 -87 79 -102 55 hvcurveto
            hintmask 11100110
            5 2 133 54 124 vvcurveto
            206 -246 36 -138 vhcurveto
            hintmask 11001110
            -42 -220 -7 -38 hhcurveto
            hintmask 11010110
            -118 -24 -1 -3 hhcurveto
            -4 -1 -3 -2 hvcurveto
            -43 vlineto
            hintmask 11100101
            -3 1 -3 4 vhcurveto
            38 hlineto
            70 49 -5 -91 7 hvcurveto
            -675 vlineto
            -77 -145 -14 -51 -4 -2 -4 -2 vhcurveto
            367 127 rmoveto
            336 vlineto
            3 0 4 8 vhcurveto
            107 hlineto
            148 116 -79 -153 -128 -108 -88 -126 -67 -78 36 69 hvcurveto
            -1 458 rmoveto
            257 vlineto
            41 21 -13 92 6 vhcurveto
            hintmask 11100110
            127 91 -57 -134 -91 -65 -62 -87 hvcurveto
            -165 hlineto
            -14 0 11 2 hvcurveto
            endchar
          </CharString>
          <CharString index="108">
            -31 callsubr
            -134 -634 rlineto
            127 callgsubr
            return
          </CharString>
          <CharString index="109">
            -250 0 48 159 67 463 43 116 49 hstem
            162 164 322 165 vstem
            47 5 rmoveto
            -2 1 -3 5 vhcurveto
            433 246 callgsubr
            38 vlineto
            2 -1 3 -4 -70 -90 19 69 vhcurveto
            58 vlineto
            12 3 5 11 vhcurveto
            192 -7 rlineto
            5 hlineto
            130 146 162 115 182 -123 107 -157 10 hvcurveto
            -98 hlineto
            -52 -6 -2 -1 -51 hvcurveto
            56 vlineto
            58 42 5 53 vhcurveto
            12 hlineto
            5 0 5 1 hvcurveto
            563 callgsubr
            -380 hlineto
            -5 -1 -4 -2 hvcurveto
            -37 vlineto
            -2 1 -4 5 vhcurveto
            12 hlineto
            68 29 -28 -68 hvcurveto
            -666 vlineto
            -50 -39 -36 -70 -5 -1 -4 -2 vhcurveto
            279 271 rmoveto
            414 vlineto
            6 2 9 1 5 hhcurveto
            2 30 15 1 26 hhcurveto
            141 94 -72 -147 -143 -94 -101 -147 -28 -31 3 1 -9 hvcurveto
            -10 1 -2 7 -1 7 rrcurveto
            endchar
          </CharString>
          <CharString index="110">
            -82 -26 44 1319 42 hstem
            206 118 66 139 268 145 10 114 vstem
            942 414 rmoveto
            -7 144 -88 91 -90 90 rrcurveto
            114 43 195 193 158 vvcurveto
            147 -120 99 -154 -216 -186 -173 -224 -118 66 -82 72 -89 vhcurveto
            2 -2 1 -2 -3 vvcurveto
            -23 -131 -70 -43 -36 vhcurveto
            -76 -65 -75 -92 -92 vvcurveto
            -231 136 -103 169 227 204 215 225 vhcurveto
            -145 -90 rmoveto
            -205 -197 -101 -78 -127 -71 93 121 194 84 96 90 79 vhcurveto
            16 18 26 30 24 hhcurveto
            104 127 -242 -81 hvcurveto
            -16 1013 rmoveto
            120 51 -87 -104 -121 -69 -134 -99 -83 hvcurveto
            -20 -24 -8 -5 -22 hhcurveto
            -10 -18 5 9 -8 hvcurveto
            -80 82 -85 85 113 vvcurveto
            135 113 125 139 vhcurveto
            endchar
          </CharString>
          <CharString index="111">
            8 callgsubr
            -10 -9 0 -12 -2 hvcurveto
            -57 -334 rlineto
            -4 6 0 4 vhcurveto
            47 -18 203 135 hhcurveto
            205 hlineto
            43 91 523 callgsubr
            -20 -12 -11 -13 -18 vhcurveto
            -503 -690 rlineto
            -6 -12 0 -2 -11 vvcurveto
            return
          </CharString>
          <CharString index="112">
            6 -5 5 113 callsubr
            return
          </CharString>
          <CharString index="113">
            -243 0 48 426 73 323 75 hstem
            191 164 368 48 vstem
            633 547 rmoveto
            -262 hlineto
            -11 -5 5 11 hvcurveto
            294 vlineto
            10 3 3 11 vhcurveto
            254 hlineto
            53 18 -6 -28 24 hvcurveto
            21 -22 10 -69 3 -1 rrcurveto
            23 hlineto
            8 9 1 12 hvcurveto
            172 vlineto
            13 -7 1 -10 2 vhcurveto
            -686 hlineto
            -4 -1 689 callsubr
            2 hlineto
            11 89 -6 -68 hvcurveto
            -692 vlineto
            -48 -51 -35 -52 -5 0 -4 -2 vhcurveto
            -37 651 callgsubr
            399 hlineto
            5 0 3 2 hvcurveto
            37 vlineto
            1 0 5 -5 -56 -76 28 50 vhcurveto
            329 vlineto
            11 5 8 11 vhcurveto
            264 hlineto
            25 63 -3 -96 -1 2 -4 4 hvcurveto
            36 hlineto
            3 3 2 3 hvcurveto
            260 vlineto
            3 0 2 -6 vhcurveto
            -36 hlineto
            -3 -3 -2 -3 -86 -64 -2 -26 hvcurveto
            endchar
          </CharString>
          <CharString index="114">
            629 1582 rmoveto
            237 callgsubr
            -5 -4 -149 -59 callsubr
            -388 -1818 rlineto
            -152 -32 -26 -75 -142 hhcurveto
            777 callsubr
            489 hlineto
            766 callgsubr
            -112 -64 15 61 8 2 8 2 10 hvcurveto
            105 496 rlineto
            -28 53 58 -9 28 hhcurveto
            318 176 340 331 71 -19 185 -101 -77 -212 -228 -46 -53 hvcurveto
            -7 -8 -5 -4 -16 790 callsubr
            9 8 3 0 3 1 3 hvcurveto
            79 377 55 248 68 729 callgsubr
            159 -948 rmoveto
            -307 -202 -313 -140 -97 -25 71 50 13 2 9 2 11 vhcurveto
            72 340 132 127 83 109 87 45 rlinecurve
            82 4 -98 -57 hvcurveto
            return
          </CharString>
          <CharString index="115">
            15 10 10 15 hvcurveto
            36 vlineto
            15 -10 10 -15 vhcurveto
            return
          </CharString>
          <CharString index="116">
            vlineto
            -2 callsubr
            return
          </CharString>
          <CharString index="117">
            84 0 40 512 48 759 -20 24 46 1 -20 hstemhm
            1081 184 hintmask 11110100
            389 68 callsubr
            hvcurveto
            hintmask 11101100
            83 callsubr
          </CharString>
          <CharString index="118">
            75 55 59 71 72 -54 58 -75 -70 -61 -58 -72 -71 60 -59 70 hvcurveto
            return
          </CharString>
          <CharString index="119">
            -87 14 -67 7 -52 805 callgsubr
            -70 return
          </CharString>
          <CharString index="120">
            vlineto
            -11 1 -14 9 1 16 5 1 2 vhcurveto
            266 110 rlineto
            13 6 2 4 3 vvcurveto
            8 -1 9 -5 vhcurveto
            -58 -4 rlineto
            -60 -24 24 58 -6 hvcurveto
            return
          </CharString>
          <CharString index="121">
            683 callgsubr
            hintmask 11001000
            608 114 -102 callgsubr
            return
          </CharString>
          <CharString index="122">
            127 callgsubr
            -14 9 -15 19 21 61 22 18 33 vhcurveto
            72 333 8 38 return
          </CharString>
          <CharString index="123">
            92 callgsubr
            495 582 rmoveto
            -131 -65 -49 -68 -61 -59 43 25 -49 vhcurveto
            114 -190 -61 2 -79 hhcurveto
            -143 -125 -116 -199 hvcurveto
            143 hlineto
            141 2 74 39 57 hhcurveto
            67 39 -13 -97 169 hvcurveto
            -43 74 66 -31 83 hhcurveto
            143 125 117 198 hvcurveto
            endchar
          </CharString>
          <CharString index="124">
            262 callgsubr
            517 735 rmoveto
            -82 callgsubr
            return
          </CharString>
          <CharString index="125">
            rmoveto
            -31 -141 rlineto
            109 -30 42 -68 -53 vvcurveto
            -155 -172 -56 -147 -16 vhcurveto
            -34 -22 11 29 5 15 19 20 4 hvcurveto
            22 4 43 8 60 13 rrcurveto
            54 12 54 42 61 vvcurveto
            67 -74 38 -47 4 vhcurveto
            45 202 rlineto
            endchar
          </CharString>
          <CharString index="126">
            -272 -314 -265 -355 return
          </CharString>
          <CharString index="127">
            18 18 -1 14 hhcurveto
            177 112 -104 -176 -233 -268 -163 -250 -23 -18 2 14 hvcurveto
            return
          </CharString>
          <CharString index="128">
            44 -29 45 -62 -41 -55 -58 -58 -42 16 -68 63 62 46 71 66 vhcurveto
            return
          </CharString>
          <CharString index="129">
            1207 283 rmoveto
            29 -12 26 -22 27 vhcurveto
            -23 27 -27 19 -282 120 110 345 rcurveline
            82 -21 42 -37 10 -79 rrcurveto
            64 21 62 145 64 vvcurveto
            87 -60 69 -165 33 vhcurveto
            -84 17 -20 18 -31 71 rrcurveto
            -58 -24 -67 -124 -64 vvcurveto
            -73 51 -53 100 -32 vhcurveto
            -108 -332 rlineto
            -183 81 -16 22 21 151 5 39 43 vvcurveto
            172 -77 91 -155 -98 -29 22 60 -41 vhcurveto
            -46 -31 -37 -111 -58 vvcurveto
            -100 69 -63 138 -1 vhcurveto
            92 52 -3 -15 40 hvcurveto
            -219 7 -29 14 -27 vhcurveto
            14 -27 17 -17 416 -208 rrcurveto
            34 -20 18 -24 -28 vvcurveto
            -812 hlineto
            -103 -284 rlineto
            1023 hlineto
            53 118 42 72 1 94 rrcurveto
            return
          </CharString>
          <CharString index="130">
            -10 -12 hvcurveto
            -4 vlineto
            return
          </CharString>
          <CharString index="131">
            -6 -1 0 -3 -2 vvcurveto
            569 callgsubr
            vhcurveto
            25 hlineto
            16 89 -7 -90 hvcurveto
            -687 vlineto
            -38 -18 -28 -50 -11 vhcurveto
            -1 -9 -41 -8 -10 hhcurveto
            -5 0 -5 -1 hvcurveto
            296 459 rmoveto
            406 vlineto
            10 11 1 5 vhcurveto
            return
          </CharString>
          <CharString index="132">
            272 318 256 322 return
          </CharString>
          <CharString index="133">
            45 callgsubr
            hstemhm
            return
          </CharString>
          <CharString index="134">
            -104 callgsubr
            endchar
          </CharString>
          <CharString index="135">
            1638 -97 callgsubr
            return
          </CharString>
          <CharString index="136">
            -288 rmoveto
            -101 -71 -127 -143 -128 811 callgsubr
            108 -70 139 73 78 48 48 5 -3 1 -5 -10 821 callsubr
            823 callgsubr
            -31 807 callgsubr
            hhcurveto
            -107 -51 79 81 87 807 callsubr
            92 103 hvcurveto
            return
          </CharString>
          <CharString index="137">
            180 callgsubr
            -216 -265 -109 -97 vhcurveto
            89 callgsubr
            return
          </CharString>
          <CharString index="138">
            64 803 rmoveto
            -12 -6 -3 -7 -7 vvcurveto
            -15 5 -2 8 -3 vhcurveto
            55 -17 78 2 -65 vvcurveto
            -1151 -13 callgsubr
            437 vlineto
            10 10 0 3 vhcurveto
            417 hlineto
            23 12 30 18 25 -12 8 -38 hvcurveto
            -405 hlineto
            -6 -4 0 8 hvcurveto
            518 vlineto
            60 81 104 80 53 202 -95 -16 47 vhcurveto
            2 hlineto
            35 34 92 25 24 -281 111 176 callsubr
            return
          </CharString>
          <CharString index="139">
            72 41 -86 71 hhcurveto
            37 15 31 29 return
          </CharString>
          <CharString index="140">
            -24 451 -637 52 354 vvcurveto
            112 126 77 105 119 125 -76 -101 59 vhcurveto
            16 -22 15 -48 8 -8 rrcurveto
            -3 2 11 -2 8 hhcurveto
            9 6 2 7 4 -4 18 0 hvcurveto
            -26 213 rlineto
            9 -4 13 -6 vhcurveto
            -56 -7 rlineto
            23 -97 -98 38 -100 hhcurveto
            -183 -191 -124 -203 return
          </CharString>
          <CharString index="141">
            hhcurveto
            461 325 384 376 hvcurveto
            402 -1 -337 317 -401 hhcurveto
            return
          </CharString>
          <CharString index="142">
            97 466 rmoveto
            -295 241 -189 304 vhcurveto
            83 127 44 52 hhcurveto
            10 26 0 -5 21 hvcurveto
            2 5 2 2 1 hvcurveto
            94 207 3 -1 13 vvcurveto
            7 -2 2 -5 vhcurveto
            -30 hlineto
            -4 -1 0 -4 -2 hvcurveto
            -119 -65 -127 -70 -142 hhcurveto
            -271 -133 191 254 242 117 159 254 134 104 -47 -133 67 hvcurveto
            3 -6 8 -19 4 -6 rrcurveto
            -4 3 15 0 3 hhcurveto
            14 13 2 5 hvcurveto
            208 vlineto
            9 -2 3 -7 vhcurveto
            -41 hlineto
            -4 -15 -6 -1 hhcurveto
            -11 -34 16 8 -27 hvcurveto
            19 -81 -73 17 -83 hhcurveto
            -311 -236 -207 -299 hvcurveto
            return
          </CharString>
          <CharString index="143">
            309 -21 callgsubr
            return
          </CharString>
          <CharString index="144">
            142 callgsubr
            199 hlineto
            431 572 431 774 callgsubr
            228 hlineto
            -545 723 517 687 235 callsubr
            endchar
          </CharString>
          <CharString index="145">
            3 12 1 9 9 520 callgsubr
            return
          </CharString>
          <CharString index="146">
            32 callsubr
            hvcurveto
            return
          </CharString>
          <CharString index="147">
            75 callgsubr
            67 -59 47 68 vvcurveto
            122 98 69 92 55 vhcurveto
            return
          </CharString>
          <CharString index="148">
            178 callgsubr
            -178 201 callgsubr
            return
          </CharString>
          <CharString index="149">
            31 4 45 21 71 -31 22 -67 -221 -284 -299 -411 -125 57 -94 142 151 91 83 96 95 hvcurveto
            return
          </CharString>
          <CharString index="150">
            -3 1 -5 7 vhcurveto
            4 hlineto
            15 133 -8 -102 hvcurveto
            -1080 vlineto
            -59 -41 -43 -57 -25 vhcurveto
            -5 -12 -29 -8 -14 hhcurveto
            682 callgsubr
            -2 1 -6 7 vhcurveto
            546 hlineto
            7 1 5 3 hvcurveto
            24 vlineto
            1 0 7 -8 -14 -26 7 6 -20 vhcurveto
            -79 25 -59 23 72 vvcurveto
            return
          </CharString>
          <CharString index="151">
            -15 -10 651 callsubr
            10 -10 15 vhcurveto
            return
          </CharString>
          <CharString index="152">
            5 callgsubr
            endchar
          </CharString>
          <CharString index="153">
            328 21 -21 260 176 593 176 205 -20 hstem
            110 177 345 676 callsubr
            827 129 callgsubr
            -205 vlineto
            224 callgsubr
            -260 vlineto
            541 733 91 callgsubr
            -886 hmoveto
            205 140 91 205 vhcurveto
            -593 vlineto
            -205 -140 92 205 hvcurveto
            endchar
          </CharString>
          <CharString index="154">
            154 hintmask 1011001010000000
            102 callsubr
            hintmask 1101001010000000
            94 callsubr
            hintmask 0000110100000000
            return
          </CharString>
          <CharString index="155">
            -1074 vhcurveto
            -127 -27 return
          </CharString>
          <CharString index="156">
            1064 283 rmoveto
            754 vlineto
            95 -91 51 -88 vhcurveto
            -467 hlineto
            -142 -13 16 65 -45 hvcurveto
            -44 -31 -35 -104 -57 vvcurveto
            -132 114 -40 134 vhcurveto
            418 hlineto
            74 63 -50 -73 hvcurveto
            -494 -716 vlineto
            -141 -283 rlineto
            965 hlineto
            141 283 rlineto
            return
          </CharString>
          <CharString index="157">
            1521 632 rmoveto
            144 vlineto
            -634 634 rlineto
            -144 hlineto
            -633 -634 rlineto
            -144 vlineto
            633 -632 rlineto
            146 hlineto
            return
          </CharString>
          <CharString index="158">
            -3 -140 -41 -506 -65 vvcurveto
            -69 32 -37 25 53 55 59 109 2 vhcurveto
            -30 636 rlineto
            return
          </CharString>
          <CharString index="159">
            vmoveto
            -63 callgsubr
            return
          </CharString>
          <CharString index="160">
            78 -44 callsubr
            21 -20 hstemhm
            510 194 hintmask 11010000
            1003 -39 callgsubr
            rmoveto
            -299 -503 rlineto
            503 -194 -508 vlineto
            -304 508 rlineto
            -186 hlineto
            490 -814 rlineto
            -596 194 596 vlineto
            hintmask 10110000
            485 815 rlineto
            endchar
          </CharString>
          <CharString index="161">
            174 94 194 199 84 72 -43 -67 49 vhcurveto
            4 -4 14 -19 737 callgsubr
            2 -4 4 -12 -4 vvcurveto
            -516 vlineto
            -39 -176 -43 -30 -213 -105 192 193 vhcurveto
            return
          </CharString>
          <CharString index="162">
            199 1140 188 return
          </CharString>
          <CharString index="163">
            -21 callsubr
            177 callsubr
            return
          </CharString>
          <CharString index="164">
            -46 -134 -94 -8 -50 -4 rlinecurve
            262 callgsubr
            return
          </CharString>
          <CharString index="165">
            289 -8 -21 793 136 hstem
            354 156 391 156 vstem
            1283 111 rmoveto
            7 11 1 7 4 vvcurveto
            4 0 9 -10 vhcurveto
            -15 -90 -79 -66 hhcurveto
            -25 -28 10 32 hvcurveto
            655 267 vlineto
            595 callgsubr
            -1268 hlineto
            282 callgsubr
            298 -791 hlineto
            156 60 rlineto
            731 391 -752 vlineto
            -31 22 -10 13 106 173 21 119 68 vhcurveto
            endchar
          </CharString>
          <CharString index="166">
            1 31 16 2 25 hhcurveto
            132 102 -82 -148 -141 -62 -88 -177 -30 -31 3 1 -8 hvcurveto
            -10 1 -2 7 7 vvcurveto
            return
          </CharString>
          <CharString index="167">
            63 callsubr
            endchar
          </CharString>
          <CharString index="168">
            rmoveto
            -63 callgsubr
            905 52 callsubr
            return
          </CharString>
          <CharString index="169">
            520 callgsubr
            -13 -4 -3 -150 -281 vhcurveto
            13 -31 rlineto
            46 97 return
          </CharString>
          <CharString index="170">
            rmoveto
            -1434 vlineto
            -49 32 -57 25 53 27 59 109 3 vhcurveto
            -62 1372 rlineto
            75 60 77 68 71 -40 67 -76 hvcurveto
            -728 hlineto
            -139 -25 15 65 -45 hvcurveto
            -40 -29 -38 -109 -52 vvcurveto
            -135 112 -38 136 vhcurveto
            return
          </CharString>
          <CharString index="171">
            76 callgsubr
            78 96 callgsubr
            return
          </CharString>
          <CharString index="172">
            1080 599 rmoveto
            -153 -153 -163 -165 vhcurveto
            -331 hlineto
            -148 -130 179 141 111 76 117 84 69 hvcurveto
            517 hlineto
            166 84 -102 -199 hvcurveto
            83 4 rmoveto
            278 -89 302 -295 vhcurveto
            -427 hlineto
            -136 -27 17 64 -45 hvcurveto
            -44 -33 -32 -99 -58 vvcurveto
            -80 46 -73 129 -19 vhcurveto
            -84 -75 -74 -130 -115 vvcurveto
            -435 166 -147 261 vhcurveto
            260 hlineto
            257 134 395 208 hvcurveto
            return
          </CharString>
          <CharString index="173">
            -316 -782 316 -780 rlineto
            73 hlineto
            -251 780 249 782 rlineto
            return
          </CharString>
          <CharString index="174">
            115 -95 71 -168 -164 -206 -170 -132 -66 vhcurveto
            -6 -1 22 -10 11 hhcurveto
            2 2 0 1 1 hvcurveto
            59 45 114 148 175 hhcurveto
            92 76 -69 -86 -158 -182 -123 -128 -89 hvcurveto
            -13 -9 -50 -31 -15 vvcurveto
            -15 7 -3 7 2 2 1 1 2 vhcurveto
            29 41 72 23 31 hhcurveto
            99 93 -60 -146 -205 -171 -279 -222 hvcurveto
            hintmask 01111000
            -162 -62 163 -77 hhcurveto
            -44 -43 -24 -43 hvcurveto
            endchar
          </CharString>
          <CharString index="175">
            160 -15 callgsubr
            return
          </CharString>
          <CharString index="176">
            624 callsubr
            -57 -334 rlineto
            -4 6 0 4 vhcurveto
            47 -18 203 135 hhcurveto
            return
          </CharString>
          <CharString index="177">
            -408 -331 -331 -408 return
          </CharString>
          <CharString index="178">
            34 -4 54 56 vvcurveto
            119 17 134 103 vhcurveto
            98 22 -86 96 hhcurveto
            40 7 30 20 40 vvcurveto
            77 -98 27 -61 -270 -129 -200 -282 vhcurveto
            return
          </CharString>
          <CharString index="179">
            1 9 9 vvcurveto
            return
          </CharString>
          <CharString index="180">
            195 rmoveto
            -272 -226 202 261 -40 hvcurveto
            538 155 -539 hlineto
            265 37 226 205 276 hhcurveto
            195 vlineto
            70 callsubr
            86 callgsubr
            hvcurveto
            endchar
          </CharString>
          <CharString index="181">
            2 45 23 2 38 hhcurveto
            211 139 -124 -220 -212 -139 -167 -219 -43 -47 5 1 -12 hvcurveto
            -15 1 -3 10 -1 11 rrcurveto
            return
          </CharString>
          <CharString index="182">
            hhcurveto
            -35 -33 228 callgsubr
            -149 327 callsubr
            -14 2 -20 14 vhcurveto
            -4 callsubr
            return
          </CharString>
          <CharString index="183">
            711 hmoveto
            -42 220 -38 201 232 vvcurveto
            131 vlineto
            109 -12 120 -50 82 vhcurveto
            60 -37 -76 29 -129 hhcurveto
            -83 -27 20 60 -43 hvcurveto
            -45 -31 -38 -111 -57 vvcurveto
            -100 70 -56 198 -9 vhcurveto
            100 -4 67 -4 6 -111 rrcurveto
            -300 -8 -19 -12 vvcurveto
            -58 4 -58 6 -51 vhcurveto
            -376 hlineto
            -103 -283 rlineto
            339 hlineto
            72 191 11 30 26 17 37 5 rlinecurve
            9 -54 40 -126 2 -63 rrcurveto
            return
          </CharString>
          <CharString index="184">
            -18 -33 -61 -22 -21 hhcurveto
            -19 -9 15 14 16 13 54 3 15 hvcurveto
            134 634 rlineto
            4 vlineto
            16 -7 12 -16 -20 -47 -52 -77 -75 vhcurveto
            -24 25 17 32 154 155 101 52 rlinecurve
            11 21 7 3 14 hhcurveto
            28 8 -33 -34 -21 -4 -24 -2 -12 hvcurveto
            0 0 -1 -54 -264 vhcurveto
            -8 4 -3 5 11 10 14 12 10 vhcurveto
            109 97 216 265 133 hhcurveto
            40 35 -34 -51 -9 -1 -9 -2 -9 hvcurveto
            return
          </CharString>
          <CharString index="185">
            12 -4 -6 8 -21 hhcurveto
            -255 hlineto
            -14 1 -2 7 11 vvcurveto
            14 51 20 61 19 vvcurveto
            8 -4 6 -8 -35 -69 -102 -29 -27 vhcurveto
            -45 -43 -48 -44 -53 -35 rrcurveto
            -4 -2 -3 -11 -6 vvcurveto
            -10 1 12 -12 18 hhcurveto
            return
          </CharString>
          <CharString index="186">
            rmoveto
            -62 104 -2 43 396 150 256 252 63 vhcurveto
            26 104 22 115 248 1172 rrcurveto
            -57 callgsubr
            106 65 -10 -71 -11 -2 716 callsubr
            vhcurveto
            -1665 -353 2 -150 -186 431 callgsubr
            hvcurveto
            return
          </CharString>
          <CharString index="187">
            293 callsubr
            127 return
          </CharString>
          <CharString index="188">
            vlineto
            35 callgsubr
            -446 hlineto
            -8 -2 return
          </CharString>
          <CharString index="189">
            170 callgsubr
            hintmask 01111000
            -72 -61 86 -71 hhcurveto
            -37 -15 -31 -29 -39 51 -55 81 321 125 callsubr
            181 854 rlineto
            26 5 5 27 22 hhcurveto
            return
          </CharString>
          <CharString index="190">
            -56 callgsubr
            endchar
          </CharString>
          <CharString index="191">
            189 65 -131 -143 -124 -138 -134 -273 -37 -41 2 4 -43 hvcurveto
            -19 2 -9 13 16 vvcurveto
            4 0 3 1 4 vhcurveto
            return
          </CharString>
          <CharString index="192">
            96 34 callsubr
            return
          </CharString>
          <CharString index="193">
            55 callsubr
            vstem
            return
          </CharString>
          <CharString index="194">
            92 42 67 59 111 vvcurveto
            157 -93 133 -185 10 vhcurveto
            -100 hlineto
            -98 -132 -6 -2 -99 hvcurveto
            return
          </CharString>
          <CharString index="195">
            hstem
            125 86 callsubr
            return
          </CharString>
          <CharString index="196">
            -118 rmoveto
            -123 72 -116 145 137 92 149 21 14 -10 9 -11 vhcurveto
            -43 -15 -86 -122 hhcurveto
            -43 -46 43 85 hvcurveto
            return
          </CharString>
          <CharString index="197">
            vlineto
            -12 2 -9 12 -3 vhcurveto
            -27 107 68 -27 160 hhcurveto
            300 182 235 267 217 -132 235 -210 -40 -44 -10 -46 -107 hvcurveto
            0 -118 -65 -9 -13 -2 18 13 vhcurveto
            return
          </CharString>
          <CharString index="198">
            -39 callgsubr
            rmoveto
            249 -782 -251 -780 rlineto
            73 hlineto
            316 780 -316 782 rlineto
            return
          </CharString>
          <CharString index="199">
            372 callgsubr
            235 173 callgsubr
            81 -20 return
          </CharString>
          <CharString index="200">
            -34 -19 -37 -21 -66 -17 return
          </CharString>
          <CharString index="201">
            -34 callgsubr
            -289 -198 -40 -355 vhcurveto
            370 291 -54 callsubr
            return
          </CharString>
          <CharString index="202">
            -608 rmoveto
            -62 104 -2 43 396 150 256 252 63 vhcurveto
            26 104 22 115 248 1172 rrcurveto
            -57 callgsubr
            106 65 -10 -71 -11 -2 716 callsubr
            vhcurveto
            -1665 -353 2 -150 -186 hhcurveto
            return
          </CharString>
          <CharString index="203">
            220 657 callsubr
            -39 callgsubr
            -20 hstem
            568 194 vstem
            172 callgsubr
            226 hlineto
            320 425 rlineto
            -419 194 422 vlineto
            344 -455 rlineto
            225 hlineto
            -553 731 532 706 688 callgsubr
            -322 -428 267 callgsubr
            427 rlineto
            endchar
          </CharString>
          <CharString index="204">
            -21 832 95 49 -20 return
          </CharString>
          <CharString index="205">
            rmoveto
            187 -248 -186 -246 rlineto
            93 hlineto
            139 184 139 -184 rlineto
            104 hlineto
            -191 253 180 717 callgsubr
            -92 hlineto
            -135 -180 -135 179 rlineto
            return
          </CharString>
          <CharString index="206">
            rmoveto
            36 62 72 28 73 hhcurveto
            219 -1 93 -205 -177 vvcurveto
            -172 -99 -199 -191 -118 -110 67 126 -13 vhcurveto
            473 vlineto
            10 2 8 10 6 vhcurveto
            endchar
          </CharString>
          <CharString index="207">
            rmoveto
            -77 98 -27 61 270 129 200 282 vhcurveto
            792 vlineto
            71 callsubr
            -792 vlineto
            -34 4 -54 -56 vvcurveto
            -119 -17 -134 -103 vhcurveto
            -98 -22 86 -96 hhcurveto
            -40 -7 -30 -20 -40 vvcurveto
            endchar
          </CharString>
          <CharString index="208">
            49 -342 86 1901 86 hstem
            200 153 267 153 vstem
            200 587 callgsubr
            -2073 940 86 -294 vlineto
            -50 -23 23 50 hvcurveto
            1755 vlineto
            50 23 23 50 vhcurveto
            271 86 hlineto
            -764 -1914 rmoveto
            1755 vlineto
            50 23 23 50 vhcurveto
            194 -1901 -194 hlineto
            -50 -23 23 50 hvcurveto
            endchar
          </CharString>
          <CharString index="209">
            167 -624 rmoveto
            472 callsubr
            60 rlineto
            8 4 8 4 8 vvcurveto
            523 vlineto
            18 1 -3 743 callgsubr
            return
          </CharString>
          <CharString index="210">
            70 -53 -21 860 102 return
          </CharString>
          <CharString index="211">
            rmoveto
            -151 70 -141 118 -75 vhcurveto
            -37 -35 -34 -35 -29 -29 56 -49 rcurveline
            26 30 37 42 45 44 rrcurveto
            -15 40 44 -8 47 hhcurveto
            165 225 127 109 1 hvcurveto
            33 -20 64 -92 vhcurveto
            -114 -1 -125 -77 -111 -91 rrcurveto
            -99 70 -41 131 141 vvcurveto
            139 51 140 127 71 vhcurveto
            19 28 43 16 35 hhcurveto
            return
          </CharString>
          <CharString index="212">
            105 113 callgsubr
            107 103 callsubr
            return
          </CharString>
          <CharString index="213">
            450 113 callgsubr
            108 212 callgsubr
            return
          </CharString>
          <CharString index="214">
            113 112 return
          </CharString>
          <CharString index="215">
            rmoveto
            4 -3 0 1 -3 hhcurveto
            -7 -17 -20 -6 -1 hvcurveto
            -1 -1 658 callsubr
            -1 0 -2 1 -2 vhcurveto
            42 -93 23 -98 -108 vvcurveto
            -239 -106 -217 -158 -184 vhcurveto
            -3 -3 -2 -4 -3 vvcurveto
            -6 8 -20 7 3 0 1 4 4 vhcurveto
            184 177 119 242 245 vvcurveto
            123 -30 118 -60 96 vhcurveto
            endchar
          </CharString>
          <CharString index="216">
            105 60 57 74 102 57 -91 -84 33 vhcurveto
            -12 4 2 -5 15 hhcurveto
            16 2 10 12 hvcurveto
            92 vlineto
            73 -2 23 -18 13 vhcurveto
            10 -13 -76 32 -82 hhcurveto
            -76 -51 -25 -20 -32 hvcurveto
            return
          </CharString>
          <CharString index="217">
            54 -342 86 1901 86 hstem
            413 152 268 152 vstem
            985 587 callgsubr
            -918 -86 274 hlineto
            50 22 -23 -50 hvcurveto
            -1755 vlineto
            -50 -22 -23 -50 vhcurveto
            -296 -86 940 hlineto
            -420 1987 rmoveto
            196 hlineto
            50 22 -23 -50 hvcurveto
            -1755 vlineto
            -50 -22 -23 -50 vhcurveto
            -196 hlineto
            endchar
          </CharString>
          <CharString index="218">
            vlineto
            280 242 193 280 280 -242 192 -280 hvcurveto
            return
          </CharString>
          <CharString index="219">
            797 callsubr
            92 126 return
          </CharString>
          <CharString index="220">
            -5 2 vhcurveto
            -34 16 return
          </CharString>
          <CharString index="221">
            -27 rmoveto
            112 hlineto
            528 1244 rlineto
            13 32 20 45 24 vvcurveto
            16 -10 4 -12 vhcurveto
            -796 hlineto
            -9 -8 -15 -6 -4 hvcurveto
            -132 -350 -1 -1 -2 vvcurveto
            -9 8 -1 9 10 9 4 14 7 vhcurveto
            86 154 rlineto
            24 13 31 26 27 hhcurveto
            575 hlineto
            11 4 -9 -6 hvcurveto
            -486 -1165 rlineto
            endchar
          </CharString>
          <CharString index="222">
            -101 -84 rrcurveto
            -23 -19 -12 -21 -24 vvcurveto
            -43 41 -38 47 69 70 102 38 40 vhcurveto
            79 74 return
          </CharString>
          <CharString index="223">
            64 callsubr
            hstemhm
            return
          </CharString>
          <CharString index="224">
            -67 -132 100 -54 hhcurveto
            -43 -32 -29 -41 hvcurveto
            return
          </CharString>
          <CharString index="225">
            198 -177 154 return
          </CharString>
          <CharString index="226">
            -255 -120 return
          </CharString>
          <CharString index="227">
            201 163 163 201 108 96 -47 -74 66 vhcurveto
            153 59 rlineto
            137 -97 -161 80 -167 hhcurveto
            -267 -250 -212 -307 hvcurveto
            endchar
          </CharString>
          <CharString index="228">
            90 723 rmoveto
            -420 341 -341 420 420 341 341 420 420 -341 341 -420 -420 -341 -341 -420 vhcurveto
            96 1 rmoveto
            366 298 298 366 367 298 -298 -366 -367 -298 -298 -367 -366 -298 298 367 vhcurveto
            return
          </CharString>
          <CharString index="229">
            rmoveto
            134 112 115 135 135 114 -114 -135 -133 -115 -116 -134 -133 -114 114 135 vhcurveto
            -167 1 rmoveto
            -220 179 -194 235 222 197 179 235 225 -185 194 -234 -235 -179 -197 -222 vhcurveto
            endchar
          </CharString>
          <CharString index="230">
            -22 737 callgsubr
            -3 2 2 0 3 hhcurveto
            return
          </CharString>
          <CharString index="231">
            -1 -3 -3 472 callgsubr
            return
          </CharString>
          <CharString index="232">
            160 538 callgsubr
            37 hvcurveto
            return
          </CharString>
          <CharString index="233">
            -49 callsubr
            endchar
          </CharString>
          <CharString index="234">
            hlineto
            15 9 35 11 4 hvcurveto
            74 196 rlineto
            8 -6 4 -8 vhcurveto
            -52 -20 -158 -107 hhcurveto
            -385 8 callgsubr
            return
          </CharString>
          <CharString index="235">
            233 21 -21 1235 175 hstem
            584 195 vstem
            584 hmoveto
            684 callsubr
            565 227 callgsubr
            hlineto
            endchar
          </CharString>
          <CharString index="236">
            464 540 175 -540 421 621 175 return
          </CharString>
          <CharString index="237">
            -555 -639 68 1471 -20 return
          </CharString>
          <CharString index="238">
            363 callsubr
            -9 vvcurveto
            return
          </CharString>
          <CharString index="239">
            -124 108 -80 102 return
          </CharString>
          <CharString index="240">
            hlineto
            12 6 10 15 3 hvcurveto
            6 25 rlineto
            15 3 -12 10 -12 hhcurveto
            return
          </CharString>
          <CharString index="241">
            780 96 rmoveto
            -4 vlineto
            -12 11 -10 14 51 85 102 20 21 vhcurveto
            19 -19 rlineto
            -39 -21 -169 -162 -84 hhcurveto
            -40 -35 34 51 9 748 callgsubr
            9 hvcurveto
            178 825 callgsubr
            4 vlineto
            12 -14 10 -14 vhcurveto
            -66 -2 -262 -310 -63 -83 -10 -13 -12 -12 -8 -38 -72 -333 rcurveline
            return
          </CharString>
          <CharString index="242">
            213 -155 219 -225 -91 -88 -43 -53 -71 vhcurveto
            -15 -11 -65 -49 -10 -14 rrcurveto
            -13 -10 -24 -21 -20 vvcurveto
            -4 6 6 -11 8 hhcurveto
            2 6 0 2 2 hvcurveto
            15 9 61 53 19 8 rrcurveto
            31 41 57 20 49 hhcurveto
            152 137 -104 -152 35 hvcurveto
            10 -45 6 -57 -47 vvcurveto
            return
          </CharString>
          <CharString index="243">
            vlineto
            -10 -14 -56 -34 -28 -12 rrcurveto
            -18 -42 -44 -10 -45 hhcurveto
            -139 -162 131 200 hvcurveto
            endchar
          </CharString>
          <CharString index="244">
            -444 -21 486 97 callsubr
            return
          </CharString>
          <CharString index="245">
            143 callsubr
            -2 return
          </CharString>
          <CharString index="246">
            -74 -17 22 -5 22 386 54 459 54 -9 -21 hstemhm
            186 163 322 165 hintmask 01110110
            return
          </CharString>
          <CharString index="247">
            13 -7 10 -13 2 vhcurveto
            -24 -22 -31 -41 return
          </CharString>
          <CharString index="248">
            63 59 62 rrcurveto
            33 31 58 62 40 hhcurveto
            return
          </CharString>
          <CharString index="249">
            hlineto
            -13 -6 -10 -15 -3 hvcurveto
            -5 -25 rlineto
            return
          </CharString>
          <CharString index="250">
            392 callsubr
            -37 vlineto
            return
          </CharString>
          <CharString index="251">
            1714 rmoveto
            112 -96 96 -113 -113 -96 -96 -112 -48 18 -44 28 -36 vhcurveto
            -144 -144 33 -34 144 144 rlineto
            -30 36 45 -17 49 hhcurveto
            113 96 96 113 hvcurveto
            -48 hmoveto
            -87 -75 -74 -86 -86 -75 74 87 85 75 75 86 86 75 -75 -85 vhcurveto
            return
          </CharString>
          <CharString index="252">
            368 callsubr
            80 hmoveto
            408 331 331 408 408 -331 331 -408 hvcurveto
            -195 vlineto
            276 226 -205 -265 37 hvcurveto
            -539 -155 538 hlineto
            -261 -40 -226 -202 -272 hhcurveto
            endchar
          </CharString>
          <CharString index="253">
            -41 -53 -7 -20 -39 return
          </CharString>
          <CharString index="254">
            -30 720 rlineto
            207 -8 -73 122 -202 hhcurveto
            -442 200 callsubr
            3 -82 42 -44 59 -22 rrcurveto
            -49 -65 -24 -73 -70 vvcurveto
            -55 23 -88 16 -54 vhcurveto
            17 -61 15 -65 -63 vvcurveto
            -36 -33 -7 -51 vhcurveto
            return
          </CharString>
          <CharString index="255">
            150 callgsubr
            -287 -1 -214 -128 -2 -404 rrcurveto
            671 -142 rmoveto
            18 39 0 -32 -48 -124 -89 -107 -48 -42 7 14 -36 hvcurveto
            81 98 109 67 93 hhcurveto
            endchar
          </CharString>
          <CharString index="256">
            152 123 123 152 152 123 -123 -152 -152 -123 -123 -152 -152 -123 123 152 vhcurveto
            return
          </CharString>
          <CharString index="257">
            627 21 -1 25 hhcurveto
            177 388 27 418 154 -135 114 -121 75 hvcurveto
            return
          </CharString>
          <CharString index="258">
            -55 rmoveto
            129 hlineto
            1408 1553 rlineto
            780 callsubr
            return
          </CharString>
          <CharString index="259">
            -246 -103 276 220 -1 return
          </CharString>
          <CharString index="260">
            -599 -21 1520 -20 return
          </CharString>
          <CharString index="261">
            199 160 199 return
          </CharString>
          <CharString index="262">
            0 40 785 callgsubr
            40 return
          </CharString>
          <CharString index="263">
            703 88 callgsubr
            1124 195 vstem
            355 hmoveto
            1226 vlineto
            565 -526 559 517 rlineto
            -1217 205 callgsubr
            -252 vlineto
            -503 -464 -498 464 rlineto
            -261 -1410 hlineto
            endchar
          </CharString>
          <CharString index="264">
            rmoveto
            -18 23 44 -13 43 hhcurveto
            59 26 31 46 hvcurveto
            123 -220 30 145 vvcurveto
            91 100 74 98 62 58 -27 -33 34 vhcurveto
            -69 -50 rlineto
            18 -18 -35 15 -40 hhcurveto
            -59 -41 -41 -53 hvcurveto
            -80 223 -51 -156 vvcurveto
            -93 -78 -67 -107 -67 -65 26 34 -40 vhcurveto
            return
          </CharString>
          <CharString index="265">
            hhcurveto
            -9 -5 14 5 -1 hvcurveto
            -163 163 callgsubr
            -6 -6 -10 -23 32 5 15 -5 hvcurveto
            49 -16 34 -39 19 -49 -11 -38 -33 -90 -104 -266 rrcurveto
            -5 -2 -8 -22 -10 hhcurveto
            -8 return
          </CharString>
          <CharString index="266">
            -208 -277 828 callgsubr
            -23 -56 -19 -69 -61 vvcurveto
            -39 callsubr
            vhcurveto
            7 9 7 4 6 hhcurveto
            return
          </CharString>
          <CharString index="267">
            hlineto
            277 253 203 289 201 -149 214 -200 41 hvcurveto
            21 -103 -76 4 -114 hhcurveto
            -51 -65 -4 -2 -52 hvcurveto
            return
          </CharString>
          <CharString index="268">
            rmoveto
            101 83 742 callsubr
            -83 84 -101 hvcurveto
            -70 vlineto
            64 50 -53 -61 -64 -50 -50 -64 hvcurveto
            endchar
          </CharString>
          <CharString index="269">
            vlineto
            118 3 244 271 78 70 -57 -48 60 vhcurveto
            -11 13 2 0 2 hhcurveto
            8 8 11 5 3 hvcurveto
            6 14 29 62 6 12 rrcurveto
            4 12 4 6 11 vvcurveto
            59 -145 35 -37 -88 -66 -26 -40 -80 vhcurveto
            -244 -123 -63 -285 -266 vvcurveto
            return
          </CharString>
          <CharString index="270">
            133 95 vhcurveto
            6 7 0 9 5 vvcurveto
            10 -11 10 -12 -7 -42 -59 -29 757 callsubr
            -47 return
          </CharString>
          <CharString index="271">
            160 195 return
          </CharString>
          <CharString index="272">
            -24 40 -50 50 71 11 61 80 99 -80 156 -218 -238 -118 -104 -196 vhcurveto
            -238 236 -130 -193 vvcurveto
            return
          </CharString>
          <CharString index="273">
            -17 -17 -17 -17 -28 vvcurveto
            -8 3 -27 24 vhcurveto
            return
          </CharString>
          <CharString index="274">
            -639 68 1417 577 callgsubr
            return
          </CharString>
          <CharString index="275">
            175 hstemhm
            164 callsubr
            return
          </CharString>
          <CharString index="276">
            40 84 169 return
          </CharString>
          <CharString index="277">
            -48 callsubr
            732 195 vstem
            927 -39 callgsubr
            rmoveto
            -195 -523 hlineto
            -478 426 rlineto
            -174 hlineto
            652 -639 rlineto
            -674 195 678 vlineto
            652 637 rlineto
            -174 hlineto
            -478 -427 rlineto
            endchar
          </CharString>
          <CharString index="278">
            49 -74 -84 30 -92 -16 -23 -6 -18 hhcurveto
            -8 -9 2 8 return
          </CharString>
          <CharString index="279">
            203 callgsubr
            hstem
            return
          </CharString>
          <CharString index="280">
            287 callsubr
            110 713 rmoveto
            86 callgsubr
            408 331 331 408 508 callsubr
            return
          </CharString>
          <CharString index="281">
            387 callsubr
            594 195 vstem
            50 -26 rmoveto
            408 331 331 408 408 -331 331 -408 hvcurveto
            -195 vlineto
            300 244 640 callsubr
            -244 -244 -300 hvcurveto
            endchar
          </CharString>
          <CharString index="282">
            40 hlineto
            17 2 8 12 149 -114 141 -117 hvcurveto
            -149 -135 -157 -120 hhcurveto
            -79 -39 89 49 -10 hvcurveto
            return
          </CharString>
          <CharString index="283">
            -49 -69 -68 -106 -64 -47 hvcurveto
            -4 -4 -4 -6 -6 hhcurveto
            -6 721 callsubr
            746 callgsubr
            vlineto
            return
          </CharString>
          <CharString index="284">
            -6 -2 -10 -28 -12 hhcurveto
            -11 -6 18 816 callsubr
            return
          </CharString>
          <CharString index="285">
            -60 137 callsubr
            return
          </CharString>
          <CharString index="286">
            12 6 3 7 7 vvcurveto
            15 -5 2 -8 3 vhcurveto
            return
          </CharString>
          <CharString index="287">
            -24 vlineto
            -4 1 -4 7 return
          </CharString>
          <CharString index="288">
            60 27 19 30 44 return
          </CharString>
          <CharString index="289">
            136 vstem
            426 1390 rmoveto
            40 callsubr
            return
          </CharString>
          <CharString index="290">
            814 rmoveto
            25 18 55 101 75 vvcurveto
            146 -110 29 -153 -102 -54 19 21 -22 vhcurveto
            -9 10 -11 14 -11 17 rrcurveto
            -39 -28 -33 -106 -50 vvcurveto
            -93 59 -71 144 -14 vhcurveto
            -33 -61 -17 -72 -71 vvcurveto
            -73 28 -132 16 -74 vhcurveto
            return
          </CharString>
          <CharString index="291">
            -18 51 53 -15 54 hhcurveto
            147 139 95 155 187 -166 71 -137 86 hvcurveto
            -53 33 -45 31 -19 61 rrcurveto
            return
          </CharString>
          <CharString index="292">
            rmoveto
            185 800 434 callsubr
            -292 -394 193 -150 -526 150 return
          </CharString>
          <CharString index="293">
            16 callgsubr
            501 12 callgsubr
            -166 231 callsubr
            return
          </CharString>
          <CharString index="294">
            -20 hstemhm
            45 355 -338 128 280 358 61 346 return
          </CharString>
          <CharString index="295">
            hvcurveto
            180 callsubr
            return
          </CharString>
          <CharString index="296">
            -220 797 callsubr
            return
          </CharString>
          <CharString index="297">
            -216 -243 188 -269 hhcurveto
            -212 -205 -169 -179 -14 4 -10 30 hvcurveto
            72 hlineto
            16 13 4 14 5 hvcurveto
            92 22 89 88 115 217 283 -184 229 hhcurveto
            260 157 196 136 hvcurveto
            return
          </CharString>
          <CharString index="298">
            -10 -4 -9 -4 -10 -1 rlinecurve
            -12 -15 22 7 -3 hvcurveto
            51 -26 -41 66 -119 hhcurveto
            return
          </CharString>
          <CharString index="299">
            619 -48 callsubr
            779 170 vstem
            911 -39 callgsubr
            rmoveto
            -71 hlineto
            -815 -1410 rlineto
            185 hlineto
            569 986 rlineto
            -986 170 985 vlineto
            569 -985 rlineto
            207 hlineto
            endchar
          </CharString>
          <CharString index="300">
            155 hstem
            130 155 vstem
            130 -155 rmoveto
            -1 0 -5 6 vhcurveto
            142 55 rlineto
            5 613 callsubr
            return
          </CharString>
          <CharString index="301">
            rmoveto
            -157 1 59 -149 162 -50 callgsubr
            -88 callsubr
            return
          </CharString>
          <CharString index="302">
            -111 -35 callgsubr
            return
          </CharString>
          <CharString index="303">
            292 3 callgsubr
            return
          </CharString>
          <CharString index="304">
            hvcurveto
            -162 163 callgsubr
            -7 -6 -10 -23 32 5 16 -5 hvcurveto
            48 -16 35 -39 18 -49 212 -574 rcurveline
            -9 3 6 -16 9 hhcurveto
            return
          </CharString>
          <CharString index="305">
            141 324 callsubr
            539 195 vstem
            539 312 rmoveto
            -489 405 rlineto
            -226 vlineto
            586 -491 586 490 rlineto
            232 vlineto
            -488 782 callsubr
            1098 -195 vlineto
            endchar
          </CharString>
          <CharString index="306">
            104 -6 644 callsubr
            1147 194 rmoveto
            -511 510 524 522 -1049 225 -36 -170 730 -156 -407 -404 419 -420 -742 -158 36 -170 rlineto
            endchar
          </CharString>
          <CharString index="307">
            hlineto
            -82 -85 2 79 -42 hvcurveto
            -14 -10 -13 -19 -12 -24 -23 -44 -15 -53 -1 -44 return
          </CharString>
          <CharString index="308">
            173 callgsubr
            81 -20 hstemhm
            return
          </CharString>
          <CharString index="309">
            hhcurveto
            -428 -361 -370 -431 return
          </CharString>
          <CharString index="310">
            hlineto
            5 1 1 4 5 vvcurveto
            return
          </CharString>
          <CharString index="311">
            -10 vhcurveto
            -3 -1 -3 -3 return
          </CharString>
          <CharString index="312">
            285 88 callgsubr
            736 185 vstem
            1091 731 rmoveto
            185 679 -185 -476 hlineto
            -736 476 rlineto
            290 callgsubr
            1209 hlineto
            endchar
          </CharString>
          <CharString index="313">
            vlineto
            -294 133 -63 166 122 73 75 88 78 vhcurveto
            8 8 2 5 9 hhcurveto
            7 0 -19 -5 hvcurveto
            return
          </CharString>
          <CharString index="314">
            173 -483 rlineto
            193 hlineto
            -506 -39 callgsubr
            rlineto
            -251 hlineto
            115 -159 rmoveto
            221 -617 return
          </CharString>
          <CharString index="315">
            rmoveto
            -117 -144 rlineto
            32 -3 69 -25 -45 vvcurveto
            -79 -130 -3 -31 -18 vhcurveto
            -10 -6 0 -3 -9 vvcurveto
            -19 14 -2 24 vhcurveto
            104 10 107 39 11 102 rrcurveto
            23 -21 59 -72 20 vhcurveto
            88 103 rlineto
            endchar
          </CharString>
          <CharString index="316">
            rmoveto
            -72 58 -58 72 72 58 58 72 72 -58 58 -72 -72 -58 -58 -72 vhcurveto
            return
          </CharString>
          <CharString index="317">
            -7 -3 -2 -4 -5 vvcurveto
            -9 3 -1 5 -2 vhcurveto
            33 -10 47 1 -39 vvcurveto
            return
          </CharString>
          <CharString index="318">
            8 -2 6 774 callsubr
            return
          </CharString>
          <CharString index="319">
            vlineto
            -125 35 -149 86 -99 vhcurveto
            -115 86 96 -25 156 hhcurveto
            65 88 65 63 6 hvcurveto
            41 -36 47 -54 -6 -10 0 -88 -115 vhcurveto
            -20 -26 -37 -11 -72 hhcurveto
            -92 21 -14 127 78 vvcurveto
            return
          </CharString>
          <CharString index="320">
            319 21 -21 554 194 662 -20 hstem
            905 748 rmoveto
            525 525 -137 137 -1273 -1272 137 -138 554 554 rlineto
            679 194 hlineto
            endchar
          </CharString>
          <CharString index="321">
            -194 494 rlineto
            -54 hlineto
            -194 -494 rlineto
            217 363 rmoveto
            114 -292 rlineto
            -228 hlineto
            return
          </CharString>
          <CharString index="322">
            340 callgsubr
            hmoveto
            205 callgsubr
            return
          </CharString>
          <CharString index="323">
            -574 -28 98 732 98 return
          </CharString>
          <CharString index="324">
            75 172 612 172 return
          </CharString>
          <CharString index="325">
            -104 -48 -85 -184 -119 vvcurveto
            -35 6 -53 79 70 19 50 34 14 vhcurveto
            25 62 5 71 17 81 205 162 rcurveline
            1 vlineto
            88 71 rlineto
            -17 -78 -14 -37 -76 vvcurveto
            -88 0 -85 44 -81 vhcurveto
            return
          </CharString>
          <CharString index="326">
            179 0 20 1216 174 hstem
            25 -39 callgsubr
            rmoveto
            553 -1410 rlineto
            154 hlineto
            553 -39 callgsubr
            rlineto
            -619 -1144 rmoveto
            -380 970 rlineto
            760 hlineto
            endchar
          </CharString>
          <CharString index="327">
            59 1158 574 -588 576 578 63 -1148 538 callsubr
            -83 -39 callgsubr
            rlineto
            -159 hlineto
            -588 -590 -576 590 rlineto
            -191 hlineto
            -73 -1410 rlineto
            return
          </CharString>
          <CharString index="328">
            25 callgsubr
            196 vstem
            160 hmoveto
            196 1192 hlineto
            502 -503 564 623 -100 98 -464 -525 -502 525 rlineto
            -196 hlineto
            endchar
          </CharString>
          <CharString index="329">
            rmoveto
            184 195 rlineto
            69 vlineto
            -428 -320 428 -318 rlineto
            70 vlineto
            -184 195 rlineto
            return
          </CharString>
          <CharString index="330">
            586 callsubr
            406 callsubr
            132 162 vhcurveto
            return
          </CharString>
          <CharString index="331">
            -83 67 -67 83 83 67 67 83 83 -67 67 -83 -83 -67 -67 -83 vhcurveto
            return
          </CharString>
          <CharString index="332">
            97 callsubr
            178 26 callsubr
            445 callsubr
            return
          </CharString>
          <CharString index="333">
            -71 0 48 337 85 475 -21 return
          </CharString>
          <CharString index="334">
            -147 -149 -9 -3 -147 hvcurveto
            return
          </CharString>
          <CharString index="335">
            690 460 rmoveto
            return
          </CharString>
          <CharString index="336">
            vvcurveto
            -19 0 -23 -2 1 vhcurveto
            63 -96 -103 12 -59 hhcurveto
            -2 hlineto
            -244 -210 -215 -240 -264 194 -209 268 hvcurveto
            -301 534 rmoveto
            154 84 178 174 return
          </CharString>
          <CharString index="337">
            rmoveto
            118 callgsubr
            -890 vmoveto
            371 callsubr
          </CharString>
          <CharString index="338">
            -11 830 callgsubr
            return
          </CharString>
          <CharString index="339">
            1237 rmoveto
            70 -70 163 162 163 -162 70 70 -162 163 162 163 -70 70 -163 -162 -163 162 -70 -70 162 -163 rlineto
            endchar
          </CharString>
          <CharString index="340">
            vhcurveto
            -1046 -71 callsubr
            -5 -24 rlineto
            return
          </CharString>
          <CharString index="341">
            vvcurveto
            233 -184 168 -233 16 727 callsubr
            return
          </CharString>
          <CharString index="342">
            rlineto
            -199 268 callsubr
            return
          </CharString>
          <CharString index="343">
            -4 -1 0 -4 7 hhcurveto
            82 110 -20 -100 -25 hvcurveto
            return
          </CharString>
          <CharString index="344">
            -5 -21 26 155 772 -20 return
          </CharString>
          <CharString index="345">
            -145 -21 2063 -20 hstem
            return
          </CharString>
          <CharString index="346">
            -29 103 callsubr
            return
          </CharString>
          <CharString index="347">
            169 rmoveto
            -300 -244 424 callgsubr
            306 callsubr
            hvcurveto
            195 vlineto
            70 callsubr
            86 callgsubr
            hvcurveto
            endchar
          </CharString>
          <CharString index="348">
            249 callgsubr
            endchar
          </CharString>
          <CharString index="349">
            rmoveto
            -64 -50 50 64 61 50 53 64 hvcurveto
            70 vlineto
            -101 -83 -84 -100 -101 83 -83 101 hvcurveto
            endchar
          </CharString>
          <CharString index="350">
            -1055 rlineto
            -115 -25 -104 -11 -76 hhcurveto
            -6 -3 -5 -3 -1 hvcurveto
            return
          </CharString>
          <CharString index="351">
            -163 -131 -131 -163 -163 -131 131 163 return
          </CharString>
          <CharString index="352">
            -8 3 -4 4 vhcurveto
            13 hlineto
            6 5 2 6 43 35 34 24 hvcurveto
            return
          </CharString>
          <CharString index="353">
            hvcurveto
            -37 vlineto
            -2 0 -3 return
          </CharString>
          <CharString index="354">
            -2 1 -6 7 vhcurveto
            10 hlineto
            53 79 -3 -82 -63 -64 -76 -49 -76 hvcurveto
            -88 -135 -100 -147 -152 -70 rrcurveto
            -4 -7 -7 0 -8 hhcurveto
            -15 -2 32 56 hvcurveto
            441 vlineto
            return
          </CharString>
          <CharString index="355">
            169 168 rlineto
            -411 -410 hlineto
            151 151 rlineto
            91 -110 47 -111 -131 vvcurveto
            -278 -240 -259 -299 -299 -240 259 278 return
          </CharString>
          <CharString index="356">
            rmoveto
            hintmask 01110000
            230 510 vlineto
            hintmask 10110000
            -230 100 330 -710 -330 vlineto
            endchar
          </CharString>
          <CharString index="357">
            rmoveto
            -68 56 -56 67 68 56 56 68 68 -56 55 -68 -67 -56 -55 -68 vhcurveto
            47 hmoveto
            41 33 36 43 41 36 -36 -41 -43 -36 -33 -41 -43 -33 33 43 vhcurveto
            endchar
          </CharString>
          <CharString index="358">
            vvcurveto
            -162 -98 -155 -176 -47 -169 37 57 -9 vhcurveto
            -3 14 -1 23 4 vvcurveto
            return
          </CharString>
          <CharString index="359">
            1134 382 callsubr
            451 return
          </CharString>
          <CharString index="360">
            89 callgsubr
            53 256 rlineto
            return
          </CharString>
          <CharString index="361">
            -8 -18 -22 -34 -16 -16 rrcurveto
            -50 -48 -123 9 -96 vvcurveto
            -61 return
          </CharString>
          <CharString index="362">
            751 0 40 1328 42 -40 -20 61 -20 return
          </CharString>
          <CharString index="363">
            1124 45 callgsubr
            hstem
            211 278 vstem
            return
          </CharString>
          <CharString index="364">
            hstemhm
            445 callsubr
            -22 156 305 157 return
          </CharString>
          <CharString index="365">
            -39 callgsubr
            rmoveto
            -1410 return
          </CharString>
          <CharString index="366">
            4 8 19 617 callsubr
            return
          </CharString>
          <CharString index="367">
            291 callsubr
            hstem
            return
          </CharString>
          <CharString index="368">
            -118 821 callgsubr
            rlinecurve
            return
          </CharString>
          <CharString index="369">
            -21 164 -20 return
          </CharString>
          <CharString index="370">
            -568 -97 callgsubr
            return
          </CharString>
          <CharString index="371">
            -259 -77 151 -87 hhcurveto
            -57 -25 -18 -60 -136 270 -131 235 304 369 189 550 555 -370 183 -304 hvcurveto
            endchar
          </CharString>
          <CharString index="372">
            65 84 22 71 188 20 -150 -104 719 callsubr
            -239 -98 -243 vvcurveto
            endchar
          </CharString>
          <CharString index="373">
            21 -8 9 -14 -3 -9 -5 -2 -6 vhcurveto
            return
          </CharString>
          <CharString index="374">
            rmoveto
            -82 38 -179 -382 81 -38 rlineto
            return
          </CharString>
          <CharString index="375">
            hlineto
            -419 -556 -419 555 rlineto
            return
          </CharString>
          <CharString index="376">
            hstem
            164 callsubr
            vstem
            355 return
          </CharString>
          <CharString index="377">
            233 -183 169 -254 return
          </CharString>
          <CharString index="378">
            -20 hstemhm
            436 156 -153 151 hintmask 11011010
            723 128 rmoveto
            179 callsubr
            hintmask 11011100
            -55 17 -78 -2 65 vvcurveto
            return
          </CharString>
          <CharString index="379">
            -4 -8 -19 146 -82 hhcurveto
            -33 -40 -15 -17 -23 hvcurveto
            -107 -78 rlineto
            -15 -11 -5 -7 -22 vvcurveto
            -6 0 -12 10 vhcurveto
            15 18 33 49 hhcurveto
            41 39 -23 -34 hvcurveto
            return
          </CharString>
          <CharString index="380">
            1112 rmoveto
            68 49 50 65 66 -49 53 -68 -65 -52 -53 -66 -65 52 -50 65 hvcurveto
            return
          </CharString>
          <CharString index="381">
            805 callsubr
            5 12 3 13 43 270 rcurveline
            -38 hlineto
            -116 -31 -11 -52 -107 hhcurveto
            return
          </CharString>
          <CharString index="382">
            136 62 101 88 166 vvcurveto
            233 -186 168 -230 16 727 callsubr
            return
          </CharString>
          <CharString index="383">
            -39 callgsubr
            rmoveto
            -251 hlineto
            -506 -1410 rlineto
            193 hlineto
            173 483 return
          </CharString>
          <CharString index="384">
            -692 rlineto
            -2 return
          </CharString>
          <CharString index="385">
            -98 33 -46 92 95 vvcurveto
            114 74 193 56 12 vhcurveto
            5 23 21 2 18 113 34 -21 111 hhcurveto
            78 116 27 75 55 -100 20 -98 hvcurveto
            return
          </CharString>
          <CharString index="386">
            rmoveto
            233 192 196 236 236 194 -196 -233 -233 -194 -196 -236 -236 -192 196 233 vhcurveto
            endchar
          </CharString>
          <CharString index="387">
            rmoveto
            45 78 -285 166 285 165 -45 78 -420 -245 rlineto
            endchar
          </CharString>
          <CharString index="388">
            1370 hmoveto
            -39 callgsubr
            -1210 -1410 vlineto
            return
          </CharString>
          <CharString index="389">
            hstemhm
            1159 188 -157 157 -131 174 return
          </CharString>
          <CharString index="390">
            169 -6 -21 545 173 callgsubr
            return
          </CharString>
          <CharString index="391">
            -166 242 -2 -130 vvcurveto
            -46 -32 -46 -52 -68 -35 38 59 -27 vhcurveto
            9 -4 -4 19 -12 hhcurveto
            -8 -2 0 -9 hvcurveto
            -47 1 10 -100 3 hhcurveto
            return
          </CharString>
          <CharString index="392">
            63 36 34 44 62 34 -55 -50 20 vhcurveto
            -7 2 1 -3 9 hhcurveto
            10 1 6 7 hvcurveto
            55 vlineto
            44 -1 14 -11 8 vhcurveto
            6 -8 -45 19 -50 hhcurveto
            return
          </CharString>
          <CharString index="393">
            -324 260 -242 306 306 260 242 324 311 -260 255 -306 -306 -260 -255 -311 vhcurveto
            endchar
          </CharString>
          <CharString index="394">
            567 494 callsubr
            110 195 1088 195 vstem
            return
          </CharString>
          <CharString index="395">
            685 rmoveto
            195 -65 303 -294 vhcurveto
            return
          </CharString>
          <CharString index="396">
            34 -40 -70 -131 -106 -61 -61 vhcurveto
            -64 -64 return
          </CharString>
          <CharString index="397">
            -37 vlineto
            -2 1 -3 return
          </CharString>
          <CharString index="398">
            119 193 -20 return
          </CharString>
          <CharString index="399">
            6 2 hvcurveto
            24 vlineto
            return
          </CharString>
          <CharString index="400">
            1227 rmoveto
            return
          </CharString>
          <CharString index="401">
            2 45 23 2 38 hhcurveto
            198 152 -122 -220 -211 -93 -131 -265 -43 -47 5 1 -12 hvcurveto
            -15 1 -3 10 -1 11 rrcurveto
            return
          </CharString>
          <CharString index="402">
            -2 1 -6 7 vhcurveto
            21 hlineto
            90 -14 94 -20 -104 vvcurveto
            -1054 vlineto
            -148 -136 22 -112 -8 vhcurveto
            -22 hlineto
            522 callgsubr
            endchar
          </CharString>
          <CharString index="403">
            rmoveto
            432 86 -432 hlineto
            endchar
          </CharString>
          <CharString index="404">
            -31 22 -10 13 106 173 21 119 68 vhcurveto
            7 11 1 7 4 vvcurveto
            4 0 9 -10 vhcurveto
            -15 -90 -79 -66 hhcurveto
            -25 -28 10 32 hvcurveto
            return
          </CharString>
          <CharString index="405">
            29 37 15 97 51 vvcurveto
            119 -50 60 -107 4 vhcurveto
            -101 4 -9 19 -27 58 rrcurveto
            -27 -36 -18 -109 -49 vvcurveto
            -89 28 -51 58 -15 vhcurveto
            return
          </CharString>
          <CharString index="406">
            -76 0 175 1214 21 446 callsubr
            -195 hlineto
            endchar
          </CharString>
          <CharString index="407">
            318 -48 callsubr
            20 1273 rmoveto
            1272 -1273 137 138 -1272 1272 rlineto
            endchar
          </CharString>
          <CharString index="408">
            rmoveto
            -70 55 -52 67 68 54 51 70 66 -54 57 -68 -67 -55 -56 -66 vhcurveto
            return
          </CharString>
          <CharString index="409">
            rmoveto
            -41 34 -34 41 41 34 34 41 41 -34 34 -41 -41 -34 -34 -41 vhcurveto
            return
          </CharString>
          <CharString index="410">
            19 -5 18 -8 17 vhcurveto
            881 85 -881 hlineto
            8 16 5 18 20 vvcurveto
            return
          </CharString>
          <CharString index="411">
            hstemhm
            775 154 callgsubr
            return
          </CharString>
          <CharString index="412">
            8 -41 hhcurveto
            308 callsubr
            return
          </CharString>
          <CharString index="413">
            300 244 424 callgsubr
            return
          </CharString>
          <CharString index="414">
            487 356 callsubr
            return
          </CharString>
          <CharString index="415">
            8 -33 2 37 -20 hhcurveto
            return
          </CharString>
          <CharString index="416">
            310 callsubr
            hstem
            return
          </CharString>
          <CharString index="417">
            -21 388 -20 return
          </CharString>
          <CharString index="418">
            195 391 195 hstem
            671 195 vstem
            866 -39 callgsubr
            rmoveto
            -786 -195 591 -391 -530 -195 530 return
          </CharString>
          <CharString index="419">
            125 rmoveto
            128 180 vlineto
            269 16 246 181 281 vvcurveto
            194 -145 188 -193 39 vhcurveto
            21 -101 -54 4 return
          </CharString>
          <CharString index="420">
            hintmask 11110100
            338 callsubr
          </CharString>
          <CharString index="421">
            601 -29 45 4 96 764 47 hstemhm
            223 152 448 154 442 154 -154 158 hintmask 11111010
            1704 return
          </CharString>
          <CharString index="422">
            -246 -127 60 vhcurveto
            36 -59 50 -149 -78 -8 -49 -27 -35 vvcurveto
            -56 49 -41 54 40 60 71 73 53 -31 81 -26 46 vhcurveto
            return
          </CharString>
          <CharString index="423">
            -76 21 -21 1215 195 215 callsubr
            -815 -195 620 hlineto
            endchar
          </CharString>
          <CharString index="424">
            -104 84 -84 104 104 84 84 104 104 -84 84 -104 -104 -84 -84 -104 vhcurveto
            return
          </CharString>
          <CharString index="425">
            100 hstem
            600 100 vstem
            700 587 callgsubr
            -575 -100 475 return
          </CharString>
          <CharString index="426">
            -94 74 -69 89 90 72 69 94 87 -72 75 -90 -89 -74 -75 -87 vhcurveto
            return
          </CharString>
          <CharString index="427">
            83 67 67 83 83 67 -67 -83 -83 -67 -67 -83 -83 -67 67 83 vhcurveto
            return
          </CharString>
          <CharString index="428">
            10 6 5 10 5 hvcurveto
            39 101 1 3 3 vvcurveto
            13 -14 1 -12 vhcurveto
            return
          </CharString>
          <CharString index="429">
            494 -27 63 474 35 860 47 return
          </CharString>
          <CharString index="430">
            293 callgsubr
            -44 -44 -38 return
          </CharString>
          <CharString index="431">
            0 20 1369 21 hstem
            return
          </CharString>
          <CharString index="432">
            -500 114 500 vlineto
            return
          </CharString>
          <CharString index="433">
            -480 162 callgsubr
            return
          </CharString>
          <CharString index="434">
            -111 -118 vvcurveto
            return
          </CharString>
          <CharString index="435">
            464 callgsubr
            -6 712 callgsubr
            2 -7 10 -3 vhcurveto
            562 hlineto
            10 3 3 7 10 vvcurveto
            return
          </CharString>
          <CharString index="436">
            -119 -146 -21 2064 -20 hstem
            420 return
          </CharString>
          <CharString index="437">
            560 callgsubr
            75 72 89 2 vhcurveto
            return
          </CharString>
          <CharString index="438">
            94 hhcurveto
            7 2 4 -25 callsubr
            5 24 rlineto
            3 1 0 5 -7 hhcurveto
            -521 -71 callsubr
            -5 -24 rlineto
            return
          </CharString>
          <CharString index="439">
            0 175 448 175 -159 679 callsubr
            return
          </CharString>
          <CharString index="440">
            -10 2 -6 6 vhcurveto
            41 hlineto
            8 8 2 10 64 31 86 47 hvcurveto
            return
          </CharString>
          <CharString index="441">
            -220 -220 return
          </CharString>
          <CharString index="442">
            613 -29 150 433 280 431 150 hstem
            150 704 callgsubr
            cntrmask 00011100
            return
          </CharString>
          <CharString index="443">
            18 -84 20 -136 -124 vvcurveto
            -26 -1 -25 -2 -24 vhcurveto
            87 hlineto
            18 74 9 76 79 vvcurveto
            103 -18 104 -17 83 vhcurveto
            return
          </CharString>
          <CharString index="444">
            rmoveto
            130 105 105 130 130 105 -105 -130 -130 -105 -105 -130 -130 -105 105 130 vhcurveto
            endchar
          </CharString>
          <CharString index="445">
            -36 callgsubr
            endchar
          </CharString>
          <CharString index="446">
            259 callsubr
            33 return
          </CharString>
          <CharString index="447">
            -2 -2 -1 -1 -2 vvcurveto
            endchar
          </CharString>
          <CharString index="448">
            40 648 76 return
          </CharString>
          <CharString index="449">
            439 hlineto
            254 183 169 233 222 -183 200 -254 hvcurveto
            -244 586 -195 hlineto
            return
          </CharString>
          <CharString index="450">
            -45 34 vvcurveto
            2 0 8 -5 vhcurveto
            -267 hlineto
            -9 -5 -4 -8 -17 24 3 11 -3 hvcurveto
            37 -12 26 -30 14 -36 return
          </CharString>
          <CharString index="451">
            200 -135 -200 vlineto
            389 callgsubr
            -270 271 333 -1 vhcurveto
            200 return
          </CharString>
          <CharString index="452">
            53 callgsubr
            -30 -645 53 callgsubr
            endchar
          </CharString>
          <CharString index="453">
            111 785 58 8 -20 hstemhm
            675 callsubr
            return
          </CharString>
          <CharString index="454">
            195 vstem
            355 1235 rmoveto
            620 175 -815 return
          </CharString>
          <CharString index="455">
            hlineto
            10 3 2 9 13 vvcurveto
            11 -6 8 689 callgsubr
            25 return
          </CharString>
          <CharString index="456">
            62 573 51 673 50 -47 -20 21 -20 return
          </CharString>
          <CharString index="457">
            hstem
            115 86 callsubr
            return
          </CharString>
          <CharString index="458">
            rmoveto
            -8 -8 -6 -8 -41 -25 -61 -49 return
          </CharString>
          <CharString index="459">
            154 -48 callsubr
            return
          </CharString>
          <CharString index="460">
            109 -18 76 842 72 return
          </CharString>
          <CharString index="461">
            172 -195 -172 vlineto
            return
          </CharString>
          <CharString index="462">
            vhcurveto
            93 callsubr
            return
          </CharString>
          <CharString index="463">
            0 70 1300 40 return
          </CharString>
          <CharString index="464">
            -6 416 callgsubr
            return
          </CharString>
          <CharString index="465">
            374 callgsubr
            hstemhm
            return
          </CharString>
          <CharString index="466">
            -150 349 -261 -131 -112 -48 -83 -136 vhcurveto
            -5 -5 -10 -4 -8 hhcurveto
            -5 -10 6 8 hvcurveto
            return
          </CharString>
          <CharString index="467">
            1160 rmoveto
            -5 1 -4 5 -1 vhcurveto
            330 hlineto
            10 0 6 4 4 -3 3 -7 -71 -78 16 70 hvcurveto
            return
          </CharString>
          <CharString index="468">
            -17 38 rrcurveto
            -17 39 -8 42 45 vvcurveto
            82 -6 45 -27 26 -75 rrcurveto
            28 14 53 111 85 vvcurveto
            122 -82 return
          </CharString>
          <CharString index="469">
            rmoveto
            252 -260 109 260 249 109 -249 262 -109 -262 -252 hlineto
            endchar
          </CharString>
          <CharString index="470">
            -2 -9 -1 -9 return
          </CharString>
          <CharString index="471">
            vvcurveto
            4 0 13 -8 vhcurveto
            -445 hlineto
            -16 -8 -7 -13 -29 40 6 19 -6 hvcurveto
            61 -20 43 -49 23 -61 return
          </CharString>
          <CharString index="472">
            vhcurveto
            50 -26 -63 37 -59 hhcurveto
            -90 -88 -45 -166 -8 hvcurveto
            -5 -99 rlineto
            41 hlineto
            95 9 57 77 64 hhcurveto
            return
          </CharString>
          <CharString index="473">
            -15 73 -25 106 72 vvcurveto
            44 8 46 16 40 vhcurveto
            68 46 -18 -14 18 hvcurveto
            18 -13 14 -29 5 -12 rrcurveto
            return
          </CharString>
          <CharString index="474">
            495 193 -495 538 callsubr
            194 495 275 -1170 538 callsubr
            endchar
          </CharString>
          <CharString index="475">
            -202 0 195 463 155 470 195 hstem
            return
          </CharString>
          <CharString index="476">
            vlineto
            47 39 145 76 60 735 callsubr
            64 -73 -104 hvcurveto
            return
          </CharString>
          <CharString index="477">
            93 1196 -20 47 -20 30 -20 hstemhm
            209 195 return
          </CharString>
          <CharString index="478">
            118 callgsubr
            endchar
          </CharString>
          <CharString index="479">
            445 callgsubr
            hstem
            return
          </CharString>
          <CharString index="480">
            -195 -1410 return
          </CharString>
          <CharString index="481">
            0 -1 -2 hvcurveto
            return
          </CharString>
          <CharString index="482">
            -21 929 -20 return
          </CharString>
          <CharString index="483">
            909 0 175 1235 -20 hstem
            20 175 rmoveto
            -175 2000 175 -794 vlineto
            return
          </CharString>
          <CharString index="484">
            vlineto
            250 31 193 213 258 vvcurveto
            258 -193 213 -250 30 vhcurveto
            533 vlineto
            return
          </CharString>
          <CharString index="485">
            94 53 95 133 113 vvcurveto
            35 -6 53 -79 -70 -21 -30 -34 -17 vhcurveto
            -31 -62 6 -34 -17 -81 return
          </CharString>
          <CharString index="486">
            rmoveto
            -106 86 -88 108 109 86 88 106 109 -86 88 -109 -108 -86 -88 -109 vhcurveto
            return
          </CharString>
          <CharString index="487">
            rlineto
            -621 444 callgsubr
            vlineto
            -194 -182 rmoveto
            -409 vlineto
            -591 158 rlineto
            endchar
          </CharString>
          <CharString index="488">
            -111 -117 3 -46 252 195 -255 192 rlineto
            -42 vlineto
            110 -117 rlineto
            endchar
          </CharString>
          <CharString index="489">
            45 callgsubr
            hstem
            201 278 vstem
            return
          </CharString>
          <CharString index="490">
            21 -21 483 151 776 -20 hstem
            return
          </CharString>
          <CharString index="491">
            -7 523 callgsubr
            -8 -33 rlineto
            -3 0 return
          </CharString>
          <CharString index="492">
            rlineto
            -1 -2 0 -1 -1 vvcurveto
            -3 2 -2 return
          </CharString>
          <CharString index="493">
            -71 -69 71 -75 hhcurveto
            -64 -41 -71 -82 hvcurveto
            return
          </CharString>
          <CharString index="494">
            -217 494 callsubr
            return
          </CharString>
          <CharString index="495">
            195 358 194 358 195 return
          </CharString>
          <CharString index="496">
            442 callgsubr
            -38 return
          </CharString>
          <CharString index="497">
            -639 68 -68 154 return
          </CharString>
          <CharString index="498">
            -2 -9 -2 -10 return
          </CharString>
          <CharString index="499">
            -1 -3 -3 hvcurveto
            return
          </CharString>
          <CharString index="500">
            54 -45 21 483 54 386 22 -5 22 hstemhm
            186 163 322 165 hintmask 10110110
            53 return
          </CharString>
          <CharString index="501">
            404 0 175 1060 175 hstem
            100 195 375 571 callsubr
            cntrmask 00111000
            return
          </CharString>
          <CharString index="502">
            -15 10 -10 15 vhcurveto
            94 -152 hlineto
            -118 195 callsubr
            -6 vvcurveto
            return
          </CharString>
          <CharString index="503">
            103 callsubr
            205 116 callsubr
            64 147 return
          </CharString>
          <CharString index="504">
            197 -133 189 -194 -188 -96 -222 -47 -28 vhcurveto
            -14 27 -48 88 -32 32 rrcurveto
            return
          </CharString>
          <CharString index="505">
            hmoveto
            423 callgsubr
          </CharString>
          <CharString index="506">
            rmoveto
            98 365 165 83 -428 -83 165 hlineto
            return
          </CharString>
          <CharString index="507">
            1204 rmoveto
            -44 247 rlineto
            -50 -388 106 hlineto
            return
          </CharString>
          <CharString index="508">
            hlineto
            16 11 10 15 hvcurveto
            36 vlineto
            15 -11 10 -16 vhcurveto
            return
          </CharString>
          <CharString index="509">
            234 73 135 -125 -20 182 144 hstemhm
            return
          </CharString>
          <CharString index="510">
            rmoveto
            131 hlineto
            357 1680 rlineto
            -131 hlineto
            return
          </CharString>
          <CharString index="511">
            203 callsubr
            3 291 callgsubr
            return
          </CharString>
          <CharString index="512">
            -206 0 75 822 48 hstem
            211 164 vstem
            return
          </CharString>
          <CharString index="513">
            -132 -162 586 callsubr
            return
          </CharString>
          <CharString index="514">
            -79 -21 100 477 callgsubr
            33 return
          </CharString>
          <CharString index="515">
            -27 354 callgsubr
            return
          </CharString>
          <CharString index="516">
            -511 616 callsubr
            return
          </CharString>
          <CharString index="517">
            612 373 callsubr
            return
          </CharString>
          <CharString index="518">
            1086 115 -1086 hlineto
            return
          </CharString>
          <CharString index="519">
            -579 0 48 849 48 return
          </CharString>
          <CharString index="520">
            156 442 156 vstem
            return
          </CharString>
          <CharString index="521">
            vvcurveto
            16 callgsubr
            return
          </CharString>
          <CharString index="522">
            310 callsubr
            hstemhm
            return
          </CharString>
          <CharString index="523">
            347 9 -21 33 -21 1236 174 hstemhm
            164 callsubr
            768 195 hintmask 01111000
            return
          </CharString>
          <CharString index="524">
            211 42 56 hvcurveto
            7 9 7 4 6 hhcurveto
            8 0 826 callgsubr
            -6 -49 -18 -31 -87 vvcurveto
            return
          </CharString>
          <CharString index="525">
            67 -55 55 -67 -67 -55 -55 -67 vhcurveto
            -568 146 rmoveto
            1380 90 -1380 hlineto
            return
          </CharString>
          <CharString index="526">
            vvcurveto
            -33 vlineto
            -66 -155 8 -43 vvcurveto
            -19 18 -10 16 vhcurveto
            109 hlineto
            9 3 -4 -7 hvcurveto
            return
          </CharString>
          <CharString index="527">
            518 callsubr
            534 -375 rmoveto
            -102 -141 -83 -198 vhcurveto
            return
          </CharString>
          <CharString index="528">
            rmoveto
            100 190 210 100 -210 190 -100 -190 -210 -100 210 hlineto
            endchar
          </CharString>
          <CharString index="529">
            rmoveto
            -127 870 127 vlineto
            -870 -340 rmoveto
            -127 870 127 vlineto
            endchar
          </CharString>
          <CharString index="530">
            rmoveto
            -595 -119 595 hlineto
            endchar
          </CharString>
          <CharString index="531">
            87 79 36 47 return
          </CharString>
          <CharString index="532">
            399 -44 callsubr
            21 -20 hstemhm
            164 callsubr
            820 195 hintmask 10111000
            return
          </CharString>
          <CharString index="533">
            138 1640 rmoveto
            -67 45 -83 63 66 20 40 41 vhcurveto
            49 -65 56 45 vvcurveto
            100 return
          </CharString>
          <CharString index="534">
            1528 rmoveto
            316 -253 rlineto
            -532 150 605 vlineto
            -373 297 rlineto
            return
          </CharString>
          <CharString index="535">
            rlineto
            64 -84 37 -108 -123 vvcurveto
            -502 501 rmoveto
            121 107 -36 -62 84 hvcurveto
            return
          </CharString>
          <CharString index="536">
            rlineto
            -175 vlineto
            476 callsubr
            -566 205 callgsubr
            -195 vlineto
            endchar
          </CharString>
          <CharString index="537">
            -28 306 callgsubr
            hstemhm
            hintmask 10010000
            return
          </CharString>
          <CharString index="538">
            rmoveto
            -10 -7 -8 -9 -2 hvcurveto
            -49 -10 -39 -89 -79 return
          </CharString>
          <CharString index="539">
            0 155 785 47 399 66 -35 45 hstemhm
            return
          </CharString>
          <CharString index="540">
            109 50 rrcurveto
            93 44 137 111 85 vvcurveto
            return
          </CharString>
          <CharString index="541">
            -1116 -1410 684 callsubr
            736 return
          </CharString>
          <CharString index="542">
            141 -132 -21 165 145 return
          </CharString>
          <CharString index="543">
            1249 145 -1249 hlineto
            return
          </CharString>
          <CharString index="544">
            160 258 callsubr
            return
          </CharString>
          <CharString index="545">
            1160 199 hstem
            return
          </CharString>
          <CharString index="546">
            -6 5 -5 5 -2 vhcurveto
            return
          </CharString>
          <CharString index="547">
            vlineto
            -820 746 callsubr
            return
          </CharString>
          <CharString index="548">
            477 callgsubr
            -20 return
          </CharString>
          <CharString index="549">
            751 callsubr
            465 return
          </CharString>
          <CharString index="550">
            -84 731 callsubr
            -12 return
          </CharString>
          <CharString index="551">
            374 callgsubr
            hstem
            return
          </CharString>
          <CharString index="552">
            201 156 return
          </CharString>
          <CharString index="553">
            340 callgsubr
            175 rmoveto
            -620 -175 815 -39 callgsubr
            return
          </CharString>
          <CharString index="554">
            296 -44 callgsubr
            return
          </CharString>
          <CharString index="555">
            -20 hstem
            100 hmoveto
            1070 606 rlineto
            172 vlineto
            -1070 620 rlineto
            -183 vlineto
            return
          </CharString>
          <CharString index="556">
            981 rmoveto
            49 -43 43 -49 -49 -42 -43 -49 -49 42 -43 49 49 43 43 49 vhcurveto
            return
          </CharString>
          <CharString index="557">
            rmoveto
            66 51 53 802 callsubr
            -53 -66 -63 819 callgsubr
            -65 -51 53 63 vhcurveto
            endchar
          </CharString>
          <CharString index="558">
            rlineto
            -15 hlineto
            -637 1235 rlineto
            -201 hlineto
            636 -1235 rlineto
            endchar
          </CharString>
          <CharString index="559">
            -1410 815 175 -620 hlineto
            endchar
          </CharString>
          <CharString index="560">
            -21 930 -20 return
          </CharString>
          <CharString index="561">
            50 23 23 50 vhcurveto
            515 hlineto
            50 23 -23 -50 hvcurveto
            hintmask 10101100
            -151 86 vlineto
            return
          </CharString>
          <CharString index="562">
            -280 -6 -21 1284 189 callgsubr
            191 195 vstem
            return
          </CharString>
          <CharString index="563">
            -11 0 -75 -16 vhcurveto
            -580 hlineto
            -18 -6 -19 -18 -66 99 -173 61 -33 hvcurveto
            return
          </CharString>
          <CharString index="564">
            -42 110 -29 51 99 vvcurveto
            57 20 56 40 43 vhcurveto
            -3 25 26 -1 25 hhcurveto
            return
          </CharString>
          <CharString index="565">
            -355 -195 -250 -97 -224 -233 -301 -126 337 269 return
          </CharString>
          <CharString index="566">
            9 10 20 hhcurveto
            146 hlineto
            11 54 rlineto
            780 callsubr
            -23 -1 16 10 hvcurveto
            3 return
          </CharString>
          <CharString index="567">
            -373 -297 rlineto
            -605 150 532 vlineto
            316 253 rlineto
            endchar
          </CharString>
          <CharString index="568">
            vlineto
            22 -7 9 -14 -4 -9 -5 -3 -6 vhcurveto
            return
          </CharString>
          <CharString index="569">
            vhcurveto
            -8 -3 -11 -12 -10 vvcurveto
            -8 8 -2 9 return
          </CharString>
          <CharString index="570">
            1133 308 callgsubr
            return
          </CharString>
          <CharString index="571">
            -1410 684 callsubr
            726 hlineto
            return
          </CharString>
          <CharString index="572">
            hstemhm
            25 138 124 156 83 153 return
          </CharString>
          <CharString index="573">
            614 callgsubr
            -520 70 vstem
            -634 return
          </CharString>
          <CharString index="574">
            280 785 callsubr
            -50 hlineto
            endchar
          </CharString>
          <CharString index="575">
            rmoveto
            -522 -90 522 hlineto
            endchar
          </CharString>
          <CharString index="576">
            195 1088 195 hstem
            return
          </CharString>
          <CharString index="577">
            195 820 195 hstem
            return
          </CharString>
          <CharString index="578">
            921 -21 473 79 hstem
            return
          </CharString>
          <CharString index="579">
            -10 6 -6 10 vhcurveto
            124 return
          </CharString>
          <CharString index="580">
            -20 hstemhm
            hintmask 11000000
            return
          </CharString>
          <CharString index="581">
            44 9 44 7 41 return
          </CharString>
          <CharString index="582">
            587 callsubr
            hstem
            return
          </CharString>
          <CharString index="583">
            820 750 callsubr
            return
          </CharString>
          <CharString index="584">
            hstem
            160 566 callgsubr
            1081 hmoveto
            444 callgsubr
            return
          </CharString>
          <CharString index="585">
            -487 326 callgsubr
            -514 -1410 rlineto
            193 hlineto
            return
          </CharString>
          <CharString index="586">
            hlineto
            18 6 19 18 66 -99 173 -61 33 hvcurveto
            33 -53 -58 8 -61 hhcurveto
            return
          </CharString>
          <CharString index="587">
            36 -118 hhcurveto
            -58 -57 -9 -26 -55 hvcurveto
            -48 -42 -1 -73 -30 -122 rrcurveto
            return
          </CharString>
          <CharString index="588">
            -20 151 168 callsubr
            89 85 389 83 90 185 return
          </CharString>
          <CharString index="589">
            299 21 -21 1411 667 callsubr
            return
          </CharString>
          <CharString index="590">
            -3 -140 -30 -520 560 callgsubr
            55 72 89 2 vhcurveto
            return
          </CharString>
          <CharString index="591">
            rmoveto
            -2 1 0 0 3 hhcurveto
            654 callsubr
            2 hvcurveto
            180 767 callsubr
            return
          </CharString>
          <CharString index="592">
            hlineto
            357 -306 306 -359 -359 -306 -306 -357 vhcurveto
            return
          </CharString>
          <CharString index="593">
            hlineto
            278 240 259 299 299 240 -259 -278 vhcurveto
            return
          </CharString>
          <CharString index="594">
            -188 -177 vvcurveto
            -781 hmoveto
            168 133 190 179 46 vhcurveto
            return
          </CharString>
          <CharString index="595">
            -7 -4 -2 -4 -4 vvcurveto
            -9 3 -2 5 -1 vhcurveto
            33 -11 47 2 -39 vvcurveto
            return
          </CharString>
          <CharString index="596">
            713 callsubr
            -202 -492 -201 501 callsubr
            endchar
          </CharString>
          <CharString index="597">
            rmoveto
            707 callsubr
            -855 -146 355 -754 145 hlineto
            endchar
          </CharString>
          <CharString index="598">
            -21 441 342 callgsubr
            hstemhm
            return
          </CharString>
          <CharString index="599">
            1 54 1335 52 -27 -20 return
          </CharString>
          <CharString index="600">
            rmoveto
            -137 743 137 vlineto
            return
          </CharString>
          <CharString index="601">
            -26 469 callsubr
            return
          </CharString>
          <CharString index="602">
            400 571 callgsubr
            return
          </CharString>
          <CharString index="603">
            vhcurveto
            563 callgsubr
            return
          </CharString>
          <CharString index="604">
            1731 199 hstem
            return
          </CharString>
          <CharString index="605">
            100 -81 -21 885 69 return
          </CharString>
          <CharString index="606">
            -21 -39 callgsubr
            -20 hstemhm
            return
          </CharString>
          <CharString index="607">
            vhcurveto
            -15 hlineto
            -6 0 -4 return
          </CharString>
          <CharString index="608">
            492 713 callsubr
            return
          </CharString>
          <CharString index="609">
            102 53 -86 -88 return
          </CharString>
          <CharString index="610">
            0 -6 7 vhcurveto
            return
          </CharString>
          <CharString index="611">
            900 19 callgsubr
            -128 94 -179 72 return
          </CharString>
          <CharString index="612">
            1551 rmoveto
            -2 callgsubr
            return
          </CharString>
          <CharString index="613">
            vvcurveto
            -357 306 -306 359 359 306 306 357 return
          </CharString>
          <CharString index="614">
            117 vhcurveto
            -2 -24 -1 -18 -12 vvcurveto
            -57 10 -54 20 -49 vhcurveto
            21 -50 return
          </CharString>
          <CharString index="615">
            526 callgsubr
            vhcurveto
            return
          </CharString>
          <CharString index="616">
            354 callsubr
            707 605 callgsubr
            return
          </CharString>
          <CharString index="617">
            121 -121 140 484 139 -121 121 2 -20 hstemhm
            return
          </CharString>
          <CharString index="618">
            -662 145 662 500 145 -500 603 vlineto
            endchar
          </CharString>
          <CharString index="619">
            433 rmoveto
            1683 hlineto
            30 767 callsubr
            -1683 hlineto
            endchar
          </CharString>
          <CharString index="620">
            393 callgsubr
            -145 355 -755 145 900 vlineto
            endchar
          </CharString>
          <CharString index="621">
            488 0 52 1307 -20 26 45 return
          </CharString>
          <CharString index="622">
            793 callgsubr
            617 342 callgsubr
            hstem
            return
          </CharString>
          <CharString index="623">
            -33 32 -18 33 27 57 9 36 32 vhcurveto
            return
          </CharString>
          <CharString index="624">
            194 447 195 447 194 return
          </CharString>
          <CharString index="625">
            227 callgsubr
            vlineto
            return
          </CharString>
          <CharString index="626">
            -599 -21 190 100 190 -20 hstem
            return
          </CharString>
          <CharString index="627">
            -21 466 -20 hstem
            return
          </CharString>
          <CharString index="628">
            -20 136 111 return
          </CharString>
          <CharString index="629">
            57 45 -66 60 hhcurveto
            return
          </CharString>
          <CharString index="630">
            -21 582 -20 return
          </CharString>
          <CharString index="631">
            -135 111 return
          </CharString>
          <CharString index="632">
            hstemhm
            100 100 34 100 166 100 509 100 165 100 35 100 return
          </CharString>
          <CharString index="633">
            -21 1371 -20 24 -20 22 -20 53 -20 hstemhm
            248 195 return
          </CharString>
          <CharString index="634">
            127 -127 156 413 183 21 -20 hstemhm
            80 111 return
          </CharString>
          <CharString index="635">
            rmoveto
            613 -820 -613 -195 -39 callgsubr
            195 -602 return
          </CharString>
          <CharString index="636">
            -211 -381 50 135 50 1682 50 135 50 hstem
            return
          </CharString>
          <CharString index="637">
            rmoveto
            -8 -3 -1 -4 -5 vvcurveto
            -9 3 -2 4 -1 vhcurveto
            33 -9 47 return
          </CharString>
          <CharString index="638">
            1439 -27 626 callsubr
            return
          </CharString>
          <CharString index="639">
            -11 34 16 vhcurveto
            5 2 5 5 7 415 callgsubr
            return
          </CharString>
          <CharString index="640">
            164 callgsubr
            194 26 callsubr
            75 172 return
          </CharString>
          <CharString index="641">
            258 81 -20 hstemhm
            85 339 -326 127 821 142 return
          </CharString>
          <CharString index="642">
            -21 521 35 287 -20 hstem
            101 100 358 106 vstem
            314 return
          </CharString>
          <CharString index="643">
            -182 -148 -148 -182 -182 -148 148 182 return
          </CharString>
          <CharString index="644">
            -138 112 -112 138 138 112 -36 callsubr
            return
          </CharString>
          <CharString index="645">
            rlineto
            199 hlineto
            return
          </CharString>
          <CharString index="646">
            -83 483 435 callsubr
            hstemhm
            hintmask 10100000
            return
          </CharString>
          <CharString index="647">
            64 79 13 86 103 vvcurveto
            141 -148 95 -239 17 vhcurveto
            return
          </CharString>
          <CharString index="648">
            67 64 113 128 vvcurveto
            207 -168 168 -207 return
          </CharString>
          <CharString index="649">
            -321 -304 85 1586 85 hstem
            327 156 vstem
            return
          </CharString>
          <CharString index="650">
            -151 rlineto
            -15 -7 -4 -9 -9 vvcurveto
            -19 6 -3 10 -3 vhcurveto
            return
          </CharString>
          <CharString index="651">
            481 8 -21 913 283 248 -20 472 -20 hstem
            return
          </CharString>
          <CharString index="652">
            153 147 vvcurveto
            155 92 177 134 vhcurveto
            114 return
          </CharString>
          <CharString index="653">
            793 0 150 1345 150 hstem
            125 150 return
          </CharString>
          <CharString index="654">
            -109 hhcurveto
            -193 -100 -132 -265 -6 hvcurveto
            123 -15 return
          </CharString>
          <CharString index="655">
            hvcurveto
            -122 vlineto
            -37 -77 -37 -33 -37 -36 31 43 vhcurveto
            endchar
          </CharString>
          <CharString index="656">
            rmoveto
            190 100 -480 -100 190 -275 100 hlineto
            endchar
          </CharString>
          <CharString index="657">
            vlineto
            0 10 734 callsubr
            vhcurveto
            45 61 67 19 71 hhcurveto
            endchar
          </CharString>
          <CharString index="658">
            -165 -277 -45 -40 0 9 -27 hvcurveto
            854 vlineto
            endchar
          </CharString>
          <CharString index="659">
            872 rmoveto
            12 0 16 -17 -301 return
          </CharString>
          <CharString index="660">
            hhcurveto
            -465 -346 -321 -417 return
          </CharString>
          <CharString index="661">
            391 callgsubr
            vstem
            160 return
          </CharString>
          <CharString index="662">
            rmoveto
            -118 hlineto
            -416 -833 rlineto
            return
          </CharString>
          <CharString index="663">
            639 callgsubr
            vstem
            return
          </CharString>
          <CharString index="664">
            1046 115 -1046 hlineto
            return
          </CharString>
          <CharString index="665">
            -20 hstem
            175 156 vstem
            return
          </CharString>
          <CharString index="666">
            195 486 195 hstem
            return
          </CharString>
          <CharString index="667">
            299 415 callsubr
            return
          </CharString>
          <CharString index="668">
            47 373 40 17 45 hstemhm
            return
          </CharString>
          <CharString index="669">
            180 callsubr
            vhcurveto
            return
          </CharString>
          <CharString index="670">
            -619 -21 320 115 return
          </CharString>
          <CharString index="671">
            200 -21 748 -20 hstem
            return
          </CharString>
          <CharString index="672">
            -8 639 callsubr
            return
          </CharString>
          <CharString index="673">
            -4 143 callsubr
            return
          </CharString>
          <CharString index="674">
            -20 -21 -85 -102 -51 hhcurveto
            return
          </CharString>
          <CharString index="675">
            290 callsubr
            4 return
          </CharString>
          <CharString index="676">
            31 15 2 33 12 hvcurveto
            return
          </CharString>
          <CharString index="677">
            vlineto
            617 callgsubr
            return
          </CharString>
          <CharString index="678">
            195 375 195 return
          </CharString>
          <CharString index="679">
            -1 -67 -4 0 -2 hhcurveto
            return
          </CharString>
          <CharString index="680">
            -5 433 145 return
          </CharString>
          <CharString index="681">
            61 1359 62 return
          </CharString>
          <CharString index="682">
            12 -10 8 -11 vhcurveto
            return
          </CharString>
          <CharString index="683">
            445 callgsubr
            hstemhm
            return
          </CharString>
          <CharString index="684">
            245 430 callsubr
            return
          </CharString>
          <CharString index="685">
            110 -91 167 114 vvcurveto
            38 11 79 111 vhcurveto
            return
          </CharString>
          <CharString index="686">
            195 591 -20 hstem
            130 195 391 195 return
          </CharString>
          <CharString index="687">
            -91 38 hhcurveto
            32 26 33 42 110 -125 19 -133 return
          </CharString>
          <CharString index="688">
            686 callsubr
            1235 204 callgsubr
            return
          </CharString>
          <CharString index="689">
            650 callgsubr
            -91 hlineto
            -22 -8 -31 -9 -2 hvcurveto
            return
          </CharString>
          <CharString index="690">
            152 350 400 -276 152 474 152 return
          </CharString>
          <CharString index="691">
            -134 hvcurveto
            -1056 vlineto
            -58 -27 -41 -75 -17 vhcurveto
            -3 -13 return
          </CharString>
          <CharString index="692">
            555 -56 -21 160 260 219 127 221 return
          </CharString>
          <CharString index="693">
            -162 -132 return
          </CharString>
          <CharString index="694">
            -21 403 79 return
          </CharString>
          <CharString index="695">
            167 -483 rlineto
            170 hlineto
            -388 634 rmoveto
            return
          </CharString>
          <CharString index="696">
            252 209 -183 -240 41 hvcurveto
            -502 hlineto
            return
          </CharString>
          <CharString index="697">
            848 897 rmoveto
            165 85 -93 -204 1 hvcurveto
            return
          </CharString>
          <CharString index="698">
            569 -576 31 259 72 156 1464 return
          </CharString>
          <CharString index="699">
            hlineto
            3 2 0 3 2 hvcurveto
            2 2 4 22 2 12 return
          </CharString>
          <CharString index="700">
            hstem
            383 152 vstem
            39 738 rmoveto
            -86 344 return
          </CharString>
          <CharString index="701">
            hlineto
            -20 -10 -11 -20 -45 50 9 24 -10 hvcurveto
            77 -31 return
          </CharString>
          <CharString index="702">
            37 414 65 261 66 hstem
            561 97 vstem
            58 return
          </CharString>
          <CharString index="703">
            vlineto
            58 13 59 26 60 vhcurveto
            -6 28 32 -4 35 hhcurveto
            return
          </CharString>
          <CharString index="704">
            -114 -102 rlineto
            -114 76 130 -75 148 hhcurveto
            return
          </CharString>
          <CharString index="705">
            1105 438 140 832 -20 hstem
            100 140 return
          </CharString>
          <CharString index="706">
            410 143 -21 485 194 490 -20 hstem
            return
          </CharString>
          <CharString index="707">
            100 hstem
            100 100 vstem
            675 587 callgsubr
            -575 return
          </CharString>
          <CharString index="708">
            hlineto
            453 601 -113 90 -413 -546 rlineto
            return
          </CharString>
          <CharString index="709">
            190 -96 40 -40 100 1306 100 -40 40 hstemhm
            return
          </CharString>
          <CharString index="710">
            370 vlineto
            198 -1 141 -82 -102 vvcurveto
            endchar
          </CharString>
          <CharString index="711">
            1661 372 callsubr
            return
          </CharString>
          <CharString index="712">
            1084 -21 386 -20 22 -20 return
          </CharString>
          <CharString index="713">
            155 0 61 1309 40 return
          </CharString>
          <CharString index="714">
            269 -220 220 -269 return
          </CharString>
          <CharString index="715">
            -47 vhcurveto
            -5 -5 -1 -3 -5 hhcurveto
            return
          </CharString>
          <CharString index="716">
            hvcurveto
            355 callgsubr
            return
          </CharString>
          <CharString index="717">
            -599 -21 2265 -20 hstem
            return
          </CharString>
          <CharString index="718">
            456 -145 hlineto
            endchar
          </CharString>
          <CharString index="719">
            34 -16 111 11 return
          </CharString>
          <CharString index="720">
            2 2 2 2 vvcurveto
            return
          </CharString>
          <CharString index="721">
            -21 1315 95 return
          </CharString>
          <CharString index="722">
            -12 9 736 callsubr
            return
          </CharString>
          <CharString index="723">
            -21 519 -20 hstem
            return
          </CharString>
          <CharString index="724">
            -146 82 hhcurveto
            return
          </CharString>
          <CharString index="725">
            11 vvcurveto
            4 0 766 callsubr
            vhcurveto
            -227 hlineto
            -6 return
          </CharString>
          <CharString index="726">
            507 105 -390 278 323 105 -323 return
          </CharString>
          <CharString index="727">
            537 -27 rmoveto
            271 196 203 266 return
          </CharString>
          <CharString index="728">
            3 291 callgsubr
            -21 10 -66 -7 71 vvcurveto
            return
          </CharString>
          <CharString index="729">
            97 79 79 97 97 79 -79 -97 -97 -79 -79 -97 return
          </CharString>
          <CharString index="730">
            -12 11 -6 9 vhcurveto
            66 hlineto
            5 2 -2 -4 hvcurveto
            return
          </CharString>
          <CharString index="731">
            308 callsubr
            -10 -9 0 -12 -2 hvcurveto
            return
          </CharString>
          <CharString index="732">
            -79 -21 100 96 102 58 537 100 47 -20 hstem
            return
          </CharString>
          <CharString index="733">
            74 -47 47 576 111 649 69 -42 -20 return
          </CharString>
          <CharString index="734">
            71 1 146 163 47 42 -34 -29 36 vhcurveto
            return
          </CharString>
          <CharString index="735">
            hstemhm
            100 155 -120 120 421 123 return
          </CharString>
          <CharString index="736">
            900 rmoveto
            95 51 73 69 71 -40 70 -76 hvcurveto
            return
          </CharString>
          <CharString index="737">
            88 callgsubr
            vstem
            return
          </CharString>
          <CharString index="738">
            396 21 -21 1353 -20 24 47 6 -20 return
          </CharString>
          <CharString index="739">
            135 649 110 hstem
            502 161 vstem
            return
          </CharString>
          <CharString index="740">
            -21 500 -20 hstem
            -607 114 vstem
            -607 return
          </CharString>
          <CharString index="741">
            -115 1706 hlineto
            554 -320 63 95 return
          </CharString>
          <CharString index="742">
            63 -95 554 320 rlineto
            1706 115 return
          </CharString>
          <CharString index="743">
            141 callgsubr
            endchar
          </CharString>
          <CharString index="744">
            -820 410 callsubr
            vlineto
            endchar
          </CharString>
          <CharString index="745">
            hhcurveto
            -61 -60 52 72 hvcurveto
            endchar
          </CharString>
          <CharString index="746">
            -21 22 -21 928 -20 return
          </CharString>
          <CharString index="747">
            -244 -300 -300 return
          </CharString>
          <CharString index="748">
            -21 1412 -20 hstem
            return
          </CharString>
          <CharString index="749">
            0 -4 -2 hvcurveto
            -37 vlineto
            return
          </CharString>
          <CharString index="750">
            764 -21 902 -20 return
          </CharString>
          <CharString index="751">
            -21 1478 -20 hstem
            return
          </CharString>
          <CharString index="752">
            521 callsubr
            hstem
            return
          </CharString>
          <CharString index="753">
            150 660 150 return
          </CharString>
          <CharString index="754">
            373 callgsubr
            hstemhm
            return
          </CharString>
          <CharString index="755">
            -20 hstem
            199 156 return
          </CharString>
          <CharString index="756">
            -39 39 552 -20 hstemhm
            return
          </CharString>
          <CharString index="757">
            194 1089 194 return
          </CharString>
          <CharString index="758">
            777 callgsubr
            -36 vlineto
            -15 return
          </CharString>
          <CharString index="759">
            rmoveto
            -17 -2 -8 -12 hvcurveto
            return
          </CharString>
          <CharString index="760">
            1 2 2 1 1 return
          </CharString>
          <CharString index="761">
            2 1 0 2 return
          </CharString>
          <CharString index="762">
            124 124 return
          </CharString>
          <CharString index="763">
            -184 -195 return
          </CharString>
          <CharString index="764">
            -6 -21 48 -21 return
          </CharString>
          <CharString index="765">
            0 -2 -2 vvcurveto
            return
          </CharString>
          <CharString index="766">
            hstemhm
            107 185 -155 122 hintmask 11100000
            107 return
          </CharString>
          <CharString index="767">
            -27 70 1319 -20 28 -20 34 68 hstemhm
            return
          </CharString>
          <CharString index="768">
            vlineto
            6 2 2 7 vhcurveto
            279 hlineto
            95 -14 return
          </CharString>
          <CharString index="769">
            137 47 166 117 32 hvcurveto
            17 63 return
          </CharString>
          <CharString index="770">
            689 callgsubr
            20 -140 -14 149 vvcurveto
            return
          </CharString>
          <CharString index="771">
            hhcurveto
            -91 -82 62 91 -21 hvcurveto
            -6 27 -4 34 return
          </CharString>
          <CharString index="772">
            1326 rmoveto
            -15 -9 -4 -11 -11 vvcurveto
            -23 return
          </CharString>
          <CharString index="773">
            -20 hstem
            146 284 callgsubr
            vstem
            return
          </CharString>
          <CharString index="774">
            391 callgsubr
            720 195 vstem
            return
          </CharString>
          <CharString index="775">
            489 147 195 726 194 hstem
            return
          </CharString>
          <CharString index="776">
            -6 -21 927 283 700 -20 hstem
            86 return
          </CharString>
          <CharString index="777">
            25 775 26 hstem
            300 91 vstem
            151 return
          </CharString>
          <CharString index="778">
            1695 vmoveto
            693 129 -693 hlineto
            return
          </CharString>
          <CharString index="779">
            hstemhm
            155 150 -106 106 456 150 return
          </CharString>
          <CharString index="780">
            148 -1 117 -46 49 -66 rrcurveto
            endchar
          </CharString>
          <CharString index="781">
            -1119 rcurveline
            -17 5 9 -31 14 hhcurveto
            endchar
          </CharString>
          <CharString index="782">
            100 151 526 156 return
          </CharString>
          <CharString index="783">
            195 346 176 vstem
            return
          </CharString>
          <CharString index="784">
            121 22 239 -21 hstemhm
            return
          </CharString>
          <CharString index="785">
            1084 444 callsubr
            return
          </CharString>
          <CharString index="786">
            175 421 175 hstemhm
            return
          </CharString>
          <CharString index="787">
            -290 -21 2261 -20 return
          </CharString>
          <CharString index="788">
            -20 hstem
            941 201 vstem
            return
          </CharString>
          <CharString index="789">
            93 1704 -20 51 -20 return
          </CharString>
          <CharString index="790">
            hstemhm
            709 callsubr
            return
          </CharString>
          <CharString index="791">
            195 1235 return
          </CharString>
          <CharString index="792">
            567 -26 195 return
          </CharString>
          <CharString index="793">
            304 21 -21 return
          </CharString>
          <CharString index="794">
            0 -7 -1 hvcurveto
            return
          </CharString>
          <CharString index="795">
            71 228 69 return
          </CharString>
          <CharString index="796">
            112 callgsubr
            5 vhcurveto
            return
          </CharString>
          <CharString index="797">
            576 326 -21 817 126 hstem
            return
          </CharString>
          <CharString index="798">
            -213 47 72 -11 vhcurveto
            -4 17 -1 29 return
          </CharString>
          <CharString index="799">
            160 hmoveto
            1031 156 -1031 hlineto
            return
          </CharString>
          <CharString index="800">
            rmoveto
            82 -38 179 382 -81 38 rlineto
            return
          </CharString>
          <CharString index="801">
            -237 -34 -235 -168 -1 -270 return
          </CharString>
          <CharString index="802">
            315 -73 -21 1342 191 hstem
            return
          </CharString>
          <CharString index="803">
            vstem
            437 callsubr
            return
          </CharString>
          <CharString index="804">
            -640 65 1355 100 47 -20 hstem
            return
          </CharString>
          <CharString index="805">
            -18 24 4 11 -4 hvcurveto
            37 -12 26 -29 return
          </CharString>
          <CharString index="806">
            rmoveto
            353 callgsubr
            return
          </CharString>
          <CharString index="807">
            21 -21 662 145 603 -20 hstem
            return
          </CharString>
          <CharString index="808">
            1071 901 rmoveto
            95 51 72 69 hvcurveto
            return
          </CharString>
          <CharString index="809">
            -21 500 -20 hstem
            763 callgsubr
            vstem
            100 return
          </CharString>
          <CharString index="810">
            30 18 52 35 6 rrcurveto
            36 7 5 -2 return
          </CharString>
          <CharString index="811">
            1050 -21 233 100 232 -20 hstem
            return
          </CharString>
          <CharString index="812">
            216 callsubr
            308 99 return
          </CharString>
          <CharString index="813">
            -1410 rlineto
            endchar
          </CharString>
          <CharString index="814">
            355 145 return
          </CharString>
          <CharString index="815">
            4 1 4 1 return
          </CharString>
          <CharString index="816">
            125 199 return
          </CharString>
          <CharString index="817">
            78 233 78 return
          </CharString>
          <CharString index="818">
            -150 150 return
          </CharString>
          <CharString index="819">
            vvcurveto
            12 -6 5 return
          </CharString>
          <CharString index="820">
            rlineto
            -234 hlineto
            return
          </CharString>
          <CharString index="821">
            195 vlineto
            endchar
          </CharString>
          <CharString index="822">
            2 0 1 2 return
          </CharString>
          <CharString index="823">
            -13 -3 -15 return
          </CharString>
          <CharString index="824">
            -108 -12 return
          </CharString>
          <CharString index="825">
            0 9 3 return
          </CharString>
          <CharString index="826">
            vhcurveto
            -211 return
          </CharString>
          <CharString index="827">
            hintmask 1110110111100000
            return
          </CharString>
          <CharString index="828">
            0 8 4 return
          </CharString>
          <CharString index="829">
            7 3 8 return
          </CharString>
          <CharString index="830">
            0 -17 -8 return
          </CharString>
          <CharString index="831">
            hlineto
            -8 -3 return
          </CharString>
          <CharString index="832">
            13 -7 6 return
          </CharString>
          <CharString index="833">
            7 9 11 return
          </CharString>
          <CharString index="834">
            vhcurveto
            -101 hlineto
            return
          </CharString>
          <CharString index="835">
            1 10 hvcurveto
            return
          </CharString>
          <CharString index="836">
            13 8 hvcurveto
            return
          </CharString>
          <CharString index="837">
            -15 20 35 return
          </CharString>
          <CharString index="838">
            18 hvcurveto
            2 return
          </CharString>
          <CharString index="839">
            -7 -1 -7 return
          </CharString>
          <CharString index="840">
            2 8 vhcurveto
            return
          </CharString>
          <CharString index="841">
            12 5 2 return
          </CharString>
          <CharString index="842">
            hhcurveto
            130 return
          </CharString>
          <CharString index="843">
            -8 12 vhcurveto
            return
          </CharString>
          <CharString index="844">
            -3 -6 -11 return
          </CharString>
          <CharString index="845">
            -111 rlineto
            return
          </CharString>
          <CharString index="846">
            vhcurveto
            -497 return
          </CharString>
          <CharString index="847">
            0 17 hhcurveto
            return
          </CharString>
          <CharString index="848">
            3 7 4 return
          </CharString>
          <CharString index="849">
            83 101 100 return
          </CharString>
          <CharString index="850">
            -4 -6 hhcurveto
            return
          </CharString>
          <CharString index="851">
            hlineto
            119 return
          </CharString>
          <CharString index="852">
            -21 193 return
          </CharString>
          <CharString index="853">
            -300 rlineto
            return
          </CharString>
          <CharString index="854">
            12 327 return
          </CharString>
          <CharString index="855">
            192 vhcurveto
            return
          </CharString>
          <CharString index="856">
            -133 -45 return
          </CharString>
          <CharString index="857">
            300 rlineto
            return
          </CharString>
          <CharString index="858">
            -546 81 return
          </CharString>
          <CharString index="859">
            202 vvcurveto
            return
          </CharString>
          <CharString index="860">
            -2 -12 -2 return
          </CharString>
          <CharString index="861">
            hlineto
            20 17 return
          </CharString>
          <CharString index="862">
            vhcurveto
            178 return
          </CharString>
          <CharString index="863">
            -195 rlineto
            return
          </CharString>
          <CharString index="864">
            -43 vhcurveto
            -33 return
          </CharString>
          <CharString index="865">
            rrcurveto
            -241 return
          </CharString>
          <CharString index="866">
            49 -262 return
          </CharString>
          <CharString index="867">
            -160 hhcurveto
            return
          </CharString>
          <CharString index="868">
            199 rrcurveto
            return
          </CharString>
          <CharString index="869">
            -221 -71 return
          </CharString>
          <CharString index="870">
            6 0 6 return
          </CharString>
          <CharString index="871">
            0 -1 0 return
          </CharString>
          <CharString index="872">
            270 vvcurveto
            return
          </CharString>
          <CharString index="873">
            6 -7 1 return
          </CharString>
          <CharString index="874">
            145 rlineto
            return
          </CharString>
          <CharString index="875">
            hlineto
            287 return
          </CharString>
          <CharString index="876">
            70 141 return
          </CharString>
          <CharString index="877">
            -8 9 hhcurveto
            return
          </CharString>
          <CharString index="878">
            146 vvcurveto
            return
          </CharString>
          <CharString index="879">
            hlineto
            9 7 return
          </CharString>
          <CharString index="880">
            -9 -22 -12 return
          </CharString>
          <CharString index="881">
            -8 2 vhcurveto
            return
          </CharString>
          <CharString index="882">
            1 -5 -5 return
          </CharString>
          <CharString index="883">
            -7 -3 hvcurveto
            return
          </CharString>
          <CharString index="884">
            -7 -32 rlineto
            return
          </CharString>
          <CharString index="885">
            -20 -2 -6 return
          </CharString>
          <CharString index="886">
            vvcurveto
            -159 return
          </CharString>
          <CharString index="887">
            -130 hlineto
            return
          </CharString>
          <CharString index="888">
            hhcurveto
            -5 -7 return
          </CharString>
          <CharString index="889">
            -410 rlineto
            return
          </CharString>
          <CharString index="890">
            rlineto
            -4 -18 return
          </CharString>
          <CharString index="891">
            63 114 return
          </CharString>
          <CharString index="892">
            386 rlineto
            return
          </CharString>
          <CharString index="893">
            -230 rlineto
            return
          </CharString>
          <CharString index="894">
            7 2 7 return
          </CharString>
          <CharString index="895">
            rmoveto
            262 return
          </CharString>
          <CharString index="896">
            -1 -7 -82 return
          </CharString>
          <CharString index="897">
            hhcurveto
            -7 -3 return
          </CharString>
          <CharString index="898">
            -149 hlineto
            return
          </CharString>
          <CharString index="899">
            -118 vhcurveto
            return
          </CharString>
          <CharString index="900">
            -201 vhcurveto
            return
          </CharString>
          <CharString index="901">
            -9 8 -14 return
          </CharString>
          <CharString index="902">
            -146 hhcurveto
            return
          </CharString>
          <CharString index="903">
            -11 114 return
          </CharString>
          <CharString index="904">
            -108 -75 return
          </CharString>
          <CharString index="905">
            -287 rlineto
            return
          </CharString>
          <CharString index="906">
            224 vhcurveto
            return
          </CharString>
          <CharString index="907">
            -386 rlineto
            return
          </CharString>
          <CharString index="908">
            224 hvcurveto
            return
          </CharString>
          <CharString index="909">
            65 66 51 return
          </CharString>
          <CharString index="910">
            5 -2 5 return
          </CharString>
          <CharString index="911">
            -4 -7 -14 return
          </CharString>
          <CharString index="912">
            hlineto
            15 8 return
          </CharString>
          <CharString index="913">
            5 5 3 return
          </CharString>
          <CharString index="914">
            70 115 return
          </CharString>
          <CharString index="915">
            4 -2 4 return
          </CharString>
          <CharString index="916">
            9 10 6 return
          </CharString>
          <CharString index="917">
            -4 -8 -6 return
          </CharString>
          <CharString index="918">
            10 -5 4 return
          </CharString>
          <CharString index="919">
            13 3 14 return
          </CharString>
          <CharString index="920">
            -7 -6 hvcurveto
            return
          </CharString>
          <CharString index="921">
            6 10 hvcurveto
            return
          </CharString>
          <CharString index="922">
            -90 205 return
          </CharString>
          <CharString index="923">
            6 -2 hvcurveto
            return
          </CharString>
          <CharString index="924">
            -72 -71 -59 return
          </CharString>
          <CharString index="925">
            8 -8 5 return
          </CharString>
          <CharString index="926">
            118 -21 return
          </CharString>
          <CharString index="927">
            -9 -16 -7 return
          </CharString>
          <CharString index="928">
            -17 -8 -1 return
          </CharString>
          <CharString index="929">
            -7 -5 -12 return
          </CharString>
          <CharString index="930">
            hhcurveto
            159 return
          </CharString>
          <CharString index="931">
            -7 4 -6 return
          </CharString>
          <CharString index="932">
            hhcurveto
            16 6 return
          </CharString>
          <CharString index="933">
            2 3 -3 return
          </CharString>
          <CharString index="934">
            rmoveto
            -303 return
          </CharString>
          <CharString index="935">
            10 7 5 return
          </CharString>
          <CharString index="936">
            -441 hlineto
            return
          </CharString>
          <CharString index="937">
            367 hlineto
            return
          </CharString>
        <CharString name=".notdef">
          -53 0 47 477 300 539 47 hstem
          120 47 222 300 222 47 cntrmask 00011100
          120 hmoveto
          838 -39 callgsubr
          -838 hlineto
          47 -1363 rmoveto
          1316 744 -1316 vlineto
          -522 627 rmoveto
          224 callsubr
          endchar
        </CharString>
        <CharString name=".null">
          endchar
        </CharString>
        <CharString name="1E0A">
          514 callsubr
          273 234 hstem
          960 234 0 233 0 192 vstem
          1077 1683 rmoveto
          68 49 50 65 66 -49 53 -68 -65 -52 -53 -66 -65 52 -50 65 hvcurveto
          542 -858 -60 callsubr
        </CharString>
        <CharString name="A">
          427 0 40 562 75 740 -12 callgsubr
          endchar
        </CharString>
        <CharString name="A.sc">
          226 callsubr
          hstem
          23 5 rmoveto
          -2 1 -3 4 vhcurveto
          348 hlineto
          5 0 3 2 hvcurveto
          563 callgsubr
          -17 hlineto
          -42 -63 13 44 -15 hvcurveto
          -1 4 0 3 5 vvcurveto
          83 717 callgsubr
          3 14 24 22 vhcurveto
          253 hlineto
          21 13 -24 -4 1 hvcurveto
          83 -233 rlineto
          -2 1 -3 -5 vvcurveto
          -67 -107 4 -30 823 callgsubr
          hlineto
          -5 0 689 callsubr
          447 hlineto
          5 0 3 2 hvcurveto
          37 vlineto
          2 0 4 -5 -85 -37 54 63 -23 vhcurveto
          -276 774 727 callgsubr
          1 -1 1 rlinecurve
          -177 hlineto
          588 callgsubr
          hvcurveto
          -4 7 -12 -9 vvcurveto
          -265 -770 -32 -90 -70 -6 -34 -2 rlinecurve
          -4 -1 -2 -4 hvcurveto
          346 450 rmoveto
          99 295 rlineto
          12 5 741 callsubr
          hhcurveto
          3 2 -5 -12 4 hvcurveto
          107 -297 rlineto
          1 -3 3 -4 -4 vvcurveto
          813 callgsubr
          -9 719 callsubr
          724 callsubr
          4 6 3 3 5 1 4 hvcurveto
          endchar
        </CharString>
        <CharString name="AE">
          978 0 61 506 75 36 33 callgsubr
          hstemhm
          hintmask 11111000
          1846 hmoveto
          -106 callgsubr
          -1047 -71 callsubr
          -5 -24 rlineto
          hintmask 11110100
          -30 callsubr
          32 38 -3 -10 36 vhcurveto
          -204 -260 -580 -764 -185 -239 rrcurveto
          -54 -42 -25 0 -30 hhcurveto
          -28 hlineto
          -9 -6 -6 -12 hvcurveto
          -10 vlineto
          -7 5 -5 14 vhcurveto
          427 hlineto
          13 791 callgsubr
          hvcurveto
          15 vlineto
          6 -6 5 -6 vhcurveto
          -61 hlineto
          -71 -25 31 43 56 44 76 40 51 hvcurveto
          70 89 43 56 68 91 rrcurveto
          20 15 26 14 25 hhcurveto
          421 hlineto
          -82 -384 rlineto
          -127 -27 -63 -16 -94 hhcurveto
          -7 -2 -5 -3 -1 hvcurveto
          -5 -24 rlineto
          -3 0 -5 7 vhcurveto
          -99 642 rmoveto
          -19 -1 1 3 7 9 13 1 1 hvcurveto
          21 29 438 572 rlineto
          37 29 9 12 18 hhcurveto
          17 1 -12 -20 -10 -2 -16 -2 -9 hvcurveto
          -124 -580 rlineto
          -21 -5 -17 -7 -21 hhcurveto
          endchar
        </CharString>
        <CharString name="AE.sc">
          298 0 50 -50 75 310 74 -15 85 341 75 hstemhm
          699 164 321 49 hintmask 10101110
          20 22 rmoveto
          -6 0 -16 21 vhcurveto
          346 hlineto
          10 3 16 8 6 0 17 -14 1 hvcurveto
          -34 2 -89 5 48 vvcurveto
          7 1 9 5 8 vhcurveto
          138 231 rlineto
          11 7 23 16 26 hhcurveto
          236 -244 hlineto
          -98 -99 14 -82 -7 vhcurveto
          -10 -1 -10 -11 -13 vvcurveto
          -9 10 -16 20 vhcurveto
          791 hlineto
          4 4 5 -25 callsubr
          22 225 rlineto
          4 -14 6 -4 -12 -17 -8 -22 -2 vhcurveto
          hintmask 01011110
          -51 -5 -32 -88 -104 hhcurveto
          -222 hlineto
          -40 -35 6 52 hvcurveto
          305 vlineto
          5 1 1 6 vhcurveto
          223 hlineto
          47 44 -19 -100 -1 1 499 callgsubr
          4 1 4 hvcurveto
          308 vlineto
          4 -1 1 -5 vhcurveto
          -37 hlineto
          -3 -3 -1 -4 -81 -39 -23 -44 hvcurveto
          -231 hlineto
          -6 -1 1 5 hvcurveto
          327 661 callsubr
          -20 -104 18 -26 rrcurveto
          -4 3 13 -2 7 hhcurveto
          7 15 2 5 hvcurveto
          -11 194 rlineto
          19 -1 -8 5 -15 hhcurveto
          -788 hlineto
          -10 -2 -18 -6 -5 0 -17 13 hvcurveto
          55 hlineto
          25 42 -14 -24 -4 -1 -4 -3 -6 hvcurveto
          -421 -701 -21 -35 -25 -42 -31 -8 rlinecurve
          -20 -5 -47 -15 -19 vvcurveto
          hintmask 10101110
          477 437 rmoveto
          -15 -7 2 6 1 0 2 1 1 hvcurveto
          189 316 rlineto
          11 6 6 8 14 hhcurveto
          4 4 -3 -9 hvcurveto
          -335 vlineto
          endchar
        </CharString>
        <CharString name="AEacute">
          1032 0 61 506 75 36 33 callgsubr
          600 -20 hstemhm
          hintmask 11111010
          1544 1565 rmoveto
          -2 2 0 -1 5 hhcurveto
          3 1 1 2 3 hvcurveto
          269 217 rlineto
          27 22 28 31 41 vvcurveto
          39 -31 35 -41 -24 -26 -15 -34 -25 vhcurveto
          -213 -295 rlineto
          -2 -2 -2 -2 -2 vvcurveto
          -2 2 -2 2 -2 vhcurveto
          324 -1594 rmoveto
          -106 callgsubr
          -1047 -71 callsubr
          -5 -24 rlineto
          hintmask 11110110
          -30 callsubr
          32 38 -3 -10 36 vhcurveto
          -204 -260 -580 -764 -185 -239 rrcurveto
          -54 -42 -25 0 -30 hhcurveto
          -28 hlineto
          -9 -6 -6 -12 hvcurveto
          -10 vlineto
          -7 5 -5 14 vhcurveto
          427 hlineto
          13 791 callgsubr
          hvcurveto
          15 vlineto
          6 -6 5 -6 vhcurveto
          -61 hlineto
          -71 -25 31 43 56 44 76 40 51 hvcurveto
          70 89 43 56 68 91 rrcurveto
          20 15 26 14 25 hhcurveto
          421 hlineto
          -82 -384 rlineto
          -127 -27 -63 -16 -94 hhcurveto
          -7 -2 -5 -3 -1 hvcurveto
          -5 -24 rlineto
          -3 0 -5 7 vhcurveto
          -99 642 rmoveto
          -19 -1 1 3 7 9 13 1 1 hvcurveto
          21 29 438 572 rlineto
          37 29 9 12 18 hhcurveto
          17 1 -12 -20 -10 -2 -16 -2 -9 hvcurveto
          -124 -580 rlineto
          -21 -5 -17 -7 -21 hhcurveto
          endchar
        </CharString>
        <CharString name="A_R">
          996 -4 -21 25 44 579 93 -74 48 680 -20 23 40 -40 52 -51 -20 56 -20 hstemhm
          951 195 481 199 hintmask 1110101001100000
          18 vmoveto
          -10 0 -8 16 vhcurveto
          502 hlineto
          14 4 8 12 9 -11 10 -13 2 hvcurveto
          -58 2 -146 10 72 vvcurveto
          6 1 6 2 6 vhcurveto
          265 439 rlineto
          4 12 28 38 9 vhcurveto
          325 -445 hlineto
          -145 -149 20 -122 -9 vhcurveto
          -14 -1 -16 -2 -19 vvcurveto
          -14 16 -8 14 vhcurveto
          695 hlineto
          7 1 5 3 hvcurveto
          24 vlineto
          2 0 6 -8 -23 -53 12 2 -15 vhcurveto
          -102 13 -36 34 72 vvcurveto
          461 vlineto
          179 callgsubr
          236 -11 2 -1 1 -1 2 -2 rlinecurve
          256 -402 39 -62 38 -51 42 -38 rlinecurve
          -78 88 96 -27 348 callgsubr
          -73 65 -51 83 -303 495 rcurveline
          275 callsubr
          hintmask 1110110001100000
          227 callsubr
          hintmask 1110100011100000
          -2 -100 -7 -1 -3 hhcurveto
          -90 hlineto
          -16 -2 -11 -9 hvcurveto
          hintmask 1110101001100000
          -8 9 -9 4 vhcurveto
          108 hlineto
          45 50 -20 -56 -30 -7 -12 -659 -1069 hvcurveto
          -20 -57 -34 -57 -69 -13 rrcurveto
          -30 -5 -45 -8 -28 vvcurveto
          1146 730 rmoveto
          hintmask 1110000111100000
          606 vlineto
          hintmask 1110101001100000
          521 callgsubr
          hintmask 1101000111100000
          294 callsubr
          -513 32 788 callsubr
          426 rlineto
          17 6 28 11 8 hhcurveto
          3 4 -6 -13 5 hvcurveto
          hintmask 1110101001100000
          -469 -293 vlineto
          -21 -11 4 9 2 0 2 1 2 hvcurveto
          endchar
        </CharString>
        <CharString name="Aacute">
          502 134 callgsubr
          554 -20 hstem
          -17 -107 callgsubr
          185 889 rmoveto
          -2 2 0 -1 5 hhcurveto
          3 1 1 2 3 hvcurveto
          269 217 rlineto
          27 22 28 31 41 vvcurveto
          39 -31 35 -41 -24 -26 -15 -34 -25 vhcurveto
          -213 -295 rlineto
          -2 -2 -2 -2 -2 vvcurveto
          -2 2 -2 2 -2 vhcurveto
          endchar
        </CharString>
        <CharString name="Aacute.sc">
          226 callsubr
          403 -21 hstemhm
          hintmask 11100000
          23 5 rmoveto
          -2 1 -3 4 vhcurveto
          348 hlineto
          5 0 3 2 hvcurveto
          563 callgsubr
          -17 hlineto
          -42 -63 13 44 -15 hvcurveto
          -1 4 0 3 5 vvcurveto
          83 717 callgsubr
          3 14 24 22 vhcurveto
          253 hlineto
          21 13 -24 -4 1 hvcurveto
          83 -233 rlineto
          -2 1 -3 -5 vvcurveto
          -67 -107 4 -30 823 callgsubr
          hlineto
          -5 0 689 callsubr
          447 hlineto
          5 0 3 2 hvcurveto
          37 vlineto
          2 0 4 -5 -85 -37 54 63 -23 vhcurveto
          -276 774 727 callgsubr
          1 -1 1 rlinecurve
          -177 hlineto
          588 callgsubr
          hvcurveto
          -4 7 -12 -9 vvcurveto
          -265 -770 -32 -90 -70 -6 -34 -2 rlinecurve
          -4 -1 -2 -4 hvcurveto
          346 450 rmoveto
          99 295 rlineto
          12 5 741 callsubr
          hhcurveto
          3 2 -5 -12 4 hvcurveto
          107 -297 rlineto
          1 -3 3 -4 -4 vvcurveto
          813 callgsubr
          -9 719 callsubr
          724 callsubr
          4 6 3 3 5 1 4 hvcurveto
          144 631 rmoveto
          -3 2 1 0 3 hhcurveto
          1 1 -2 97 211 hvcurveto
          25 11 30 19 33 vvcurveto
          25 -19 24 -27 -14 -16 -5 -15 -18 vhcurveto
          -188 -154 rlineto
          hintmask 00010000
          340 callsubr
        </CharString>
        <CharString name="Abreve">
          322 callgsubr
          241 119 193 -12 callgsubr
          125 961 -95 callsubr
        </CharString>
        <CharString name="Acircumflex">
          322 callgsubr
          551 -20 hstem
          -17 -107 callgsubr
          214 1130 -46 callgsubr
        </CharString>
        <CharString name="Acircumflex.sc">
          226 callsubr
          142 22 239 -21 hstemhm
          hintmask 11100000
          23 5 rmoveto
          -2 1 -3 4 vhcurveto
          348 hlineto
          5 0 3 2 hvcurveto
          563 callgsubr
          -17 hlineto
          -42 -63 13 44 -15 hvcurveto
          -1 4 0 3 5 vvcurveto
          83 717 callgsubr
          3 14 24 22 vhcurveto
          253 hlineto
          21 13 -24 -4 1 hvcurveto
          83 -233 rlineto
          -2 1 -3 -5 vvcurveto
          -67 -107 4 -30 823 callgsubr
          hlineto
          -5 0 689 callsubr
          447 hlineto
          5 0 3 2 hvcurveto
          37 vlineto
          2 0 4 -5 -85 -37 54 63 -23 vhcurveto
          -276 774 727 callgsubr
          1 -1 1 rlinecurve
          -177 hlineto
          588 callgsubr
          hvcurveto
          -4 7 -12 -9 vvcurveto
          -265 -770 -32 -90 -70 -6 -34 -2 rlinecurve
          -4 -1 -2 -4 hvcurveto
          346 450 rmoveto
          99 295 rlineto
          12 5 741 callsubr
          hhcurveto
          3 2 -5 -12 4 hvcurveto
          107 -297 rlineto
          1 -3 3 -4 -4 vvcurveto
          813 callgsubr
          -9 719 callsubr
          724 callsubr
          4 6 3 3 5 1 4 hvcurveto
          hintmask 00011000
          306 577 rmoveto
          -2 2 715 callgsubr
          749 callgsubr
          5 2 -2 3 -4 4 hvcurveto
          -165 215 rlineto
          7 -6 -7 8 -4 781 callsubr
          -8 -5 -5 hvcurveto
          -160 -217 rlineto
          -3 -4 -1 -2 -3 vvcurveto
          -5 12 -17 5 1 3 1 2 2 vhcurveto
          144 150 rlineto
          2 2 10 12 2 hhcurveto
          2 8 -12 -2 3 hvcurveto
          endchar
        </CharString>
        <CharString name="Acute">
          -431 604 callsubr
          150 393 callgsubr
          -3 1 808 callsubr
          hhcurveto
          1 2 0 1 1 794 callgsubr
          140 rlineto
          37 16 43 30 49 vvcurveto
          37 -27 37 -41 -20 799 callgsubr
          -26 786 callgsubr
          786 callsubr
          314 callgsubr
        </CharString>
        <CharString name="Acute.sc">
          -81 1327 -21 hstem
          393 1123 rmoveto
          -3 2 1 0 3 hhcurveto
          1 1 -2 97 211 hvcurveto
          25 11 30 19 33 vvcurveto
          25 -19 24 -27 -14 -16 -5 -15 -18 vhcurveto
          -188 -154 rlineto
          340 callsubr
        </CharString>
        <CharString name="Adieresis">
          427 497 callsubr
          886 199 160 199 -92 callgsubr
          310 1054 -81 callgsubr
          endchar
        </CharString>
        <CharString name="Adieresis.sc">
          226 callsubr
          195 158 hstemhm
          hintmask 11100000
          23 5 rmoveto
          -2 1 -3 4 vhcurveto
          348 hlineto
          5 0 3 2 hvcurveto
          563 callgsubr
          -17 hlineto
          -42 -63 13 44 -15 hvcurveto
          -1 4 0 3 5 vvcurveto
          83 717 callgsubr
          3 14 24 22 vhcurveto
          253 hlineto
          21 13 -24 -4 1 hvcurveto
          83 -233 rlineto
          -2 1 -3 -5 vvcurveto
          -67 -107 4 -30 823 callgsubr
          hlineto
          -5 0 689 callsubr
          447 hlineto
          5 0 3 2 hvcurveto
          37 vlineto
          2 0 4 -5 -85 -37 54 63 -23 vhcurveto
          -276 774 727 callgsubr
          1 -1 1 rlinecurve
          -177 hlineto
          588 callgsubr
          hvcurveto
          -4 7 -12 -9 vvcurveto
          -265 -770 -32 -90 -70 -6 -34 -2 rlinecurve
          -4 -1 -2 -4 hvcurveto
          346 450 rmoveto
          99 295 rlineto
          12 5 741 callsubr
          hhcurveto
          3 2 -5 -12 4 hvcurveto
          107 -297 rlineto
          1 -3 3 -4 -4 vvcurveto
          813 callgsubr
          -9 719 callsubr
          724 callsubr
          4 6 3 3 5 1 4 hvcurveto
          hintmask 00010000
          279 627 -9 callsubr
        </CharString>
        <CharString name="Agrave">
          322 callgsubr
          553 -12 callgsubr
          165 917 rmoveto
          2 613 callsubr
          2 -2 2 -2 2 vhcurveto
          -213 310 callgsubr
          -25 -26 15 -24 hhcurveto
          -41 -31 -35 -39 -41 28 -31 27 -22 hvcurveto
          269 311 callgsubr
          2 2 -2 2 hhcurveto
          2 4 2 2 2 hvcurveto
          endchar
        </CharString>
        <CharString name="Agrave.sc">
          226 callsubr
          143 22 238 -21 hstemhm
          hintmask 11100000
          23 5 rmoveto
          -2 1 -3 4 vhcurveto
          348 hlineto
          5 0 3 2 hvcurveto
          563 callgsubr
          -17 hlineto
          -42 -63 13 44 -15 hvcurveto
          -1 4 0 3 5 vvcurveto
          83 717 callgsubr
          3 14 24 22 vhcurveto
          253 hlineto
          21 13 -24 -4 1 hvcurveto
          83 -233 rlineto
          -2 1 -3 -5 vvcurveto
          -67 -107 4 -30 823 callgsubr
          hlineto
          -5 0 689 callsubr
          447 hlineto
          5 0 3 2 hvcurveto
          37 vlineto
          2 0 4 -5 -85 -37 54 63 -23 vhcurveto
          -276 774 727 callgsubr
          1 -1 1 rlinecurve
          -177 hlineto
          588 callgsubr
          hvcurveto
          -4 7 -12 -9 vvcurveto
          -265 -770 -32 -90 -70 -6 -34 -2 rlinecurve
          -4 -1 -2 -4 hvcurveto
          346 450 rmoveto
          99 295 rlineto
          12 5 741 callsubr
          hhcurveto
          3 2 -5 -12 4 hvcurveto
          107 -297 rlineto
          1 -3 3 -4 -4 vvcurveto
          813 callgsubr
          -9 719 callsubr
          724 callsubr
          4 6 3 3 5 1 4 hvcurveto
          hintmask 00011000
          160 597 -17 callgsubr
        </CharString>
        <CharString name="Alpha">
          427 0 40 562 75 740 -12 callgsubr
          endchar
        </CharString>
        <CharString name="Alphatonos">
          327 677 callgsubr
          17 -107 callgsubr
          -914 309 -55 callgsubr
          -7 0 -2 7 -2 vhcurveto
          endchar
        </CharString>
        <CharString name="Amacron">
          429 134 callgsubr
          353 99 -58 callgsubr
          -204 1073 -72 callsubr
          endchar
        </CharString>
        <CharString name="Amacron.sc">
          226 callsubr
          230 86 hstemhm
          hintmask 11100000
          23 5 rmoveto
          -2 1 -3 4 vhcurveto
          348 hlineto
          5 0 3 2 hvcurveto
          563 callgsubr
          -17 hlineto
          -42 -63 13 44 -15 hvcurveto
          -1 4 0 3 5 vvcurveto
          83 717 callgsubr
          3 14 24 22 vhcurveto
          253 hlineto
          21 13 -24 -4 1 hvcurveto
          83 -233 rlineto
          -2 1 -3 -5 vvcurveto
          -67 -107 4 -30 823 callgsubr
          hlineto
          -5 0 689 callsubr
          447 hlineto
          5 0 3 2 hvcurveto
          37 vlineto
          2 0 4 -5 -85 -37 54 63 -23 vhcurveto
          -276 774 727 callgsubr
          1 -1 1 rlinecurve
          -177 hlineto
          588 callgsubr
          hvcurveto
          -4 7 -12 -9 vvcurveto
          -265 -770 -32 -90 -70 -6 -34 -2 rlinecurve
          -4 -1 -2 -4 hvcurveto
          346 450 rmoveto
          99 295 rlineto
          12 5 741 callsubr
          hhcurveto
          3 2 -5 -12 4 hvcurveto
          107 -297 rlineto
          1 -3 3 -4 -4 vvcurveto
          813 callgsubr
          -9 719 callsubr
          724 callsubr
          4 6 3 3 5 1 4 hvcurveto
          hintmask 00010000
          -70 662 296 callsubr
        </CharString>
        <CharString name="Aogonek">
          427 442 callsubr
          168 callgsubr
          hstemhm
          981 118 -5 162 hintmask 11110100
          -17 -107 callgsubr
          174 -677 rmoveto
          hintmask 11111000
          -101 -71 -127 -143 -128 811 callgsubr
          108 -70 139 73 78 48 48 5 -3 1 -5 -10 821 callsubr
          823 callgsubr
          -31 807 callgsubr
          hhcurveto
          -107 -51 79 81 87 807 callsubr
          92 103 hvcurveto
          endchar
        </CharString>
        <CharString name="Aring">
          322 callgsubr
          219 615 callgsubr
          996 75 0 228 -205 162 43 66 -92 callgsubr
          -39 1123 -35 callsubr
          endchar
        </CharString>
        <CharString name="Aring.sc">
          226 callsubr
          156 247 hstemhm
          396 247 hintmask 11100000
          23 5 rmoveto
          -2 1 -3 4 vhcurveto
          348 hlineto
          5 0 3 2 hvcurveto
          563 callgsubr
          -17 hlineto
          -42 -63 13 44 -15 hvcurveto
          -1 4 0 3 5 vvcurveto
          83 717 callgsubr
          3 14 24 22 vhcurveto
          253 hlineto
          21 13 -24 -4 1 hvcurveto
          83 -233 rlineto
          -2 1 -3 -5 vvcurveto
          -67 -107 4 -30 823 callgsubr
          hlineto
          -5 0 689 callsubr
          447 hlineto
          5 0 3 2 hvcurveto
          37 vlineto
          2 0 4 -5 -85 -37 54 63 -23 vhcurveto
          -276 774 727 callgsubr
          1 -1 1 rlinecurve
          -177 hlineto
          588 callgsubr
          hvcurveto
          -4 7 -12 -9 vvcurveto
          -265 -770 -32 -90 -70 -6 -34 -2 rlinecurve
          -4 -1 -2 -4 hvcurveto
          346 450 rmoveto
          99 295 rlineto
          12 5 741 callsubr
          hhcurveto
          3 2 -5 -12 4 hvcurveto
          107 -297 rlineto
          1 -3 3 -4 -4 vvcurveto
          813 callgsubr
          -9 719 callsubr
          724 callsubr
          4 6 3 3 5 1 4 hvcurveto
          hintmask 00011000
          27 712 250 callsubr
        </CharString>
        <CharString name="Aringacute">
          326 134 callgsubr
          56 56 183 56 757 callgsubr
          hstem
          1088 182 vstem
          1089 1794 rmoveto
          -2 1 3 -2 3 hhcurveto
          1 2 0 1 hvcurveto
          253 112 rlineto
          30 13 34 24 39 vvcurveto
          29 -22 30 -32 -16 -20 -7 -17 -20 vhcurveto
          -226 -184 rlineto
          -2 588 callgsubr
          vvcurveto
          -45 -224 rmoveto
          -81 66 -66 81 80 67 66 81 81 -67 67 -80 -81 -66 -67 -81 vhcurveto
          56 hmoveto
          49 39 43 52 48 43 -43 -49 -51 -43 -40 -48 -52 -39 40 51 vhcurveto
          -1105 -1572 rmoveto
          -1 -4 -2 -6 -6 vvcurveto
          -6 3 -6 16 vhcurveto
          459 hlineto
          13 4 1 8 3 hvcurveto
          2 6 2 6 1 8 rrcurveto
          1 -1 10 -12 -43 -6 0 0 vhcurveto
          -81 -55 41 60 63 41 47 34 46 hvcurveto
          68 90 71 90 68 91 rrcurveto
          20 15 25 14 25 412 -214 0 204 hhcurveto
          49 4 -25 -19 hvcurveto
          -18 vlineto
          -78 7 -79 -131 vvcurveto
          -72 -7 -84 -70 -30 vhcurveto
          -14 -31 -38 -12 -102 hhcurveto
          -9 -3 -4 -6 hvcurveto
          -19 vlineto
          -8 5 -3 9 vhcurveto
          621 hlineto
          8 6 7 7 hvcurveto
          11 vlineto
          8 -4 7 -9 vhcurveto
          -44 hlineto
          -67 -86 26 84 -2 hvcurveto
          -29 1213 rlineto
          30 -1 -7 24 -38 hhcurveto
          -26 hlineto
          -31 -20 -21 -16 -12 hvcurveto
          -227 -295 -434 -568 -326 -423 rrcurveto
          -33 -25 -22 -21 -50 hhcurveto
          -22 hlineto
          -11 -3 -3 -9 -4 hvcurveto
          683 649 rmoveto
          -4 -1 2 3 11 24 28 7 10 hvcurveto
          118 154 164 210 63 86 7 9 7 11 9 1 rrcurveto
          12 0 -21 -6 hvcurveto
          -175 11 -107 -166 vvcurveto
          -31 -19 -19 -29 vhcurveto
          endchar
        </CharString>
        <CharString name="Atilde">
          427 1693 308 callgsubr
          -17 -107 callgsubr
          376 1251 rmoveto
          -8 -8 -6 -8 -41 -25 -76 -49 hvcurveto
          -105 -103 105 -111 hhcurveto
          -96 -60 -90 -124 -10 2 -6 6 hvcurveto
          21 hlineto
          8 8 2 10 64 51 66 37 hvcurveto
          105 88 -104 110 hhcurveto
          101 61 89 88 11 -1 30 -13 hvcurveto
          endchar
        </CharString>
</ttFont>
